<svg xmlns="http://www.w3.org/2000/svg" height="78.867" width="364.013" xml:space="preserve">
    <path fill="currentcolor" fill-opacity="1" fill-rule="nonzero" stroke="none" d="m1760.69 7.383 81.06 403.957h267.29l-17.41-112.547h-113.89l-7.37-40.195h97.81l-16.08-105.844h-101.83l-8.04-43.543h102.5L2028.66 6.035l-267.97 1.348M2055.45 17.422C2086.26 4.687 2121.77 0 2156.61 0c96.47 0 178.2 62.98 191.6 137.336 4.69 29.48.66 53.598-10.05 69.676-18.76 28.808-58.28 46.23-80.39 66.324-35.51 30.816-2.01 45.551 24.11 40.863 32.83-5.355 60.97-30.816 73.03-52.25l32.16 139.344c-26.8 11.387-62.31 18.75-94.48 19.426-138.66 5.355-183.55-85.09-190.92-130.641-4.68-26.125 1.34-54.258 12.07-71 15.41-24.121 58.95-50.258 72.35-64.996 21.43-24.102-21.45-44.211-39.52-40.184-33.5 7.364-49.58 22.098-64.32 44.879l-26.8-141.355M2580 276.008c-1.37-22.36-14.65-40.188-40.2-40.188h-9.38l10.73 70.336h6.69c16.4 0 33.53-7.765 32.16-30.148zm-14.07 133.988h-140.02L2342.85 4.688l143.37 1.347 20.08 125.949h58.29c94.22 0 165.47 47.153 165.47 147.387 0 101.031-74.63 130.625-164.13 130.625M884.43 409.332 822.125 87.773H444.961v-9.382l363.766-63.645 170.828-.676 32.155 149.399h95.14l19.42 102.492h-96.47l10.05 44.891h99.81l21.44 107.183H896.484l16.743 64.32H528.695v-9.382l355.735-63.641M1656.18 282.039c-5.63-24.219-16.78-40.199-40.19-40.199h-9.38l10.71 70.351h6.71c16.56 0 38.31-3.632 32.15-30.152zm-416.02-117.898 42.2 124.593 2.68-124.593zm401.94 251.89h-140.01l-79.04-384.539-22.12 389.227h-169.48L1036.5 13.406h148.72l19.43 49.574h69l2.68-49.574h286.06l20.1 124.602h58.28c94.23 0 165.47 47.18 165.47 147.383 0 101.039-74.63 130.64-164.14 130.64M0 75.703l75.707 397.93s114.559 117.246 230.449 117.91c115.899.664 207.008-109.188 207.008-109.188L426.07 82.402s-31.48 84.414-170.156 84.414C110.543 178.199 0 75.703 0 75.703" transform="matrix(.13333 0 0 -.13333 0 78.867)"/>
</svg>