<svg width="56" height="78" viewBox="0 0 56 78" fill="none" xmlns="http://www.w3.org/2000/svg">
    <path d="M23.1398 0L23.1992 0.711802L24.2566 14.2964L20.3969 19.32L18.5701 30.795L27.7512 31.1267L27.9751 30.4349L36.3404 23.7822L36.9443 15.7075L44.4055 6.16485L33.5445 0.375124L23.3488 0H23.1398ZM22.2812 1.16714L9.40398 15.2446L0.130951 32.2771L7.70826 35.238L12.7833 30.5862L17.6159 30.7608L19.4835 19.0009L23.2838 14.0566L22.2812 1.16714ZM45.0327 6.49988L45.1107 6.54838L45.1089 6.5403L45.0327 6.49988ZM45.3709 7.90429L38.8054 16.3015L38.1838 24.6001L29.6467 31.389L28.7073 34.2948L34.1838 41.057L43.0508 43.7747L54.7842 33.3365L55.01 33.5412L54.9273 30.0256L47.2924 17.9064L45.3709 7.90429ZM13.3594 31.8903L8.03904 36.7661L0.00179705 33.6272L0 54.609L6.47904 63.7656L6.6974 63.7737L12.4703 63.6542L19.4102 53.0857L19.8246 43.7611L26.3074 35.5886L27.3406 32.3963L13.3594 31.8903ZM55.0277 34.3198L43.8675 44.2526L55.43 51.4961L55.0277 34.3198ZM28.2037 35.8537L28.0457 36.3433L21.7033 44.3378L21.2926 53.5839L21.0445 53.9615L32.2772 54.2405L36.3329 60.1514L52.0609 50.9563L42.5035 44.9636L33.2992 42.1406L28.2037 35.8537ZM52.9036 51.4843L36.0347 61.3453L31.7364 55.0835L26.9047 54.9632L32.7129 63.2401L32.2669 68.0298L42.746 74.7018L55.1698 52.9055L52.9036 51.4843ZM20.4907 54.8036L13.5694 65.3396L7.46761 65.4691L14.0377 75.0234L23.4157 77.8849L41.1441 77.5114L42.3353 75.4211L42.3 75.4662L31.2727 68.4467L31.7364 63.4515L25.7591 54.9348L20.4907 54.8036Z" fill="#E4D9A4"/>
    </svg>
    