<svg width="243" height="59" viewBox="0 0 243 59" fill="none" xmlns="http://www.w3.org/2000/svg">
    <path d="M28.0647 1.29544L27.8667 1.92544L7.36472 25.0194L5.58272 24.2994H17.9307L23.1507 18.7554L23.7987 18.9714L20.1807 27.0534H19.7667L17.7147 25.9554H1.49672L1.67672 25.3254L22.1427 2.21344L24.8247 2.95144H12.3147L6.69872 8.71144L6.06872 8.33344L9.97472 0.0894437H10.3887L12.4587 1.29544H28.0647ZM31.1908 17.2974L31.7128 15.7134H43.4308L42.9088 17.2974H31.1908ZM46.4188 24.3714L48.7228 25.3254L48.5428 25.9554H38.5168L38.7148 25.3254L41.7928 24.4254L39.7228 4.58944L40.6228 4.55344L27.3208 24.4254L29.8768 25.3254L29.6788 25.9554H22.2448L22.4428 25.3254L25.3588 24.4074L41.2348 1.07944H43.7368L46.4188 24.3714ZM64.0223 12.6174C65.2823 12.6174 66.3623 12.3354 67.2623 11.7714C68.1623 11.2074 68.8523 10.4514 69.3323 9.50344C69.8123 8.54344 70.0523 7.47544 70.0523 6.29944C70.0523 5.20744 69.7163 4.37344 69.0443 3.79744C68.3723 3.22144 67.2443 2.93344 65.6603 2.93344H59.8643L61.0703 1.29544H67.1183C68.9183 1.29544 70.3703 1.50544 71.4743 1.92544C72.5903 2.33344 73.4063 2.91544 73.9223 3.67144C74.4503 4.42744 74.7143 5.32144 74.7143 6.35344C74.7143 7.69744 74.3663 8.89744 73.6703 9.95344C72.9863 11.0094 71.9783 11.8554 70.6463 12.4914C69.3263 13.1154 67.6883 13.4574 65.7323 13.5174V13.4454C66.6323 13.4934 67.3523 13.6734 67.8923 13.9854C68.4443 14.2974 68.8823 14.7474 69.2063 15.3354C69.5423 15.9114 69.8123 16.6374 70.0163 17.5134L71.2583 22.2834C71.4623 23.0874 71.6663 23.6754 71.8703 24.0474C72.0863 24.4194 72.3503 24.6594 72.6623 24.7674C72.9743 24.8634 73.3643 24.9114 73.8323 24.9114L73.5623 25.9554C72.2183 26.0634 71.1263 26.0994 70.2863 26.0634C69.4583 26.0274 68.8043 25.8894 68.3243 25.6494C67.8563 25.3974 67.4963 25.0314 67.2443 24.5514C66.9923 24.0714 66.7823 23.4534 66.6143 22.6974L65.3903 17.2614C65.1983 16.3854 64.9943 15.7374 64.7783 15.3174C64.5743 14.8854 64.3223 14.6034 64.0223 14.4714C63.7223 14.3274 63.3323 14.2554 62.8523 14.2554H56.9663L56.8403 12.6174H64.0223ZM57.1283 24.4794L59.5943 25.3254L59.4143 25.9554H49.2803L49.4783 25.3254L52.3763 24.4254L58.9823 2.77144L56.5163 1.92544L56.6963 1.29544H64.2023L57.1283 24.4794ZM87.0277 30.3474L80.1337 24.4974C79.4377 23.8854 78.8437 23.2014 78.3517 22.4454C77.8597 21.6894 77.4817 20.8374 77.2177 19.8894C76.9657 18.9414 76.8397 17.8914 76.8397 16.7394C76.8397 15.1074 77.0797 13.5174 77.5597 11.9694C78.0517 10.4094 78.7477 8.96344 79.6477 7.63144C80.5597 6.28744 81.6397 5.10544 82.8877 4.08544C84.1357 3.06544 85.5217 2.27344 87.0457 1.70944C88.5697 1.14544 90.1897 0.863443 91.9057 0.863443C93.9817 0.863443 95.7517 1.25344 97.2157 2.03344C98.6797 2.80144 99.8017 3.90544 100.582 5.34544C101.362 6.78544 101.752 8.50744 101.752 10.5114C101.752 12.0474 101.512 13.5834 101.032 15.1194C100.564 16.6554 99.8857 18.0954 98.9977 19.4394C98.1097 20.7834 97.0477 21.9654 95.8117 22.9854C94.5757 24.0054 93.1837 24.7914 91.6357 25.3434C90.0877 25.8954 88.4197 26.1294 86.6317 26.0454L86.0557 25.1994L92.6797 29.3754C93.4477 29.8674 94.1377 30.2754 94.7497 30.5994C95.3617 30.9234 95.9497 31.1694 96.5137 31.3374C97.0777 31.5174 97.6537 31.6314 98.2417 31.6794C98.8297 31.7274 99.4837 31.7154 100.204 31.6434L99.9157 32.6154C99.3997 32.7714 98.8537 32.9154 98.2777 33.0474C97.7017 33.1914 97.1017 33.2994 96.4777 33.3714C95.8657 33.4554 95.2117 33.4974 94.5157 33.4974C93.4357 33.4974 92.4997 33.3954 91.7077 33.1914C90.9157 32.9874 90.1597 32.6514 89.4397 32.1834C88.7197 31.7274 87.9157 31.1154 87.0277 30.3474ZM81.5197 18.2154C81.5197 20.3994 81.9637 22.0314 82.8517 23.1114C83.7397 24.1914 84.9937 24.7314 86.6137 24.7314C87.5977 24.7314 88.5397 24.5154 89.4397 24.0834C90.3397 23.6514 91.1797 23.0514 91.9597 22.2834C92.7397 21.5154 93.4417 20.6274 94.0657 19.6194C94.6897 18.5994 95.2237 17.5074 95.6677 16.3434C96.1237 15.1674 96.4717 13.9614 96.7117 12.7254C96.9517 11.4774 97.0717 10.2474 97.0717 9.03544C97.0717 6.85144 96.6277 5.21944 95.7397 4.13944C94.8517 3.05944 93.5977 2.51944 91.9777 2.51944C90.9817 2.51944 90.0337 2.73544 89.1337 3.16744C88.2337 3.59944 87.3937 4.19944 86.6137 4.96744C85.8457 5.73544 85.1437 6.62944 84.5077 7.64944C83.8837 8.65744 83.3497 9.74944 82.9057 10.9254C82.4617 12.0894 82.1197 13.2954 81.8797 14.5434C81.6397 15.7794 81.5197 17.0034 81.5197 18.2154ZM107.058 17.2974L107.58 15.7134H119.298L118.776 17.2974H107.058ZM122.286 24.3714L124.59 25.3254L124.41 25.9554H114.384L114.582 25.3254L117.66 24.4254L115.59 4.58944L116.49 4.55344L103.188 24.4254L105.744 25.3254L105.546 25.9554H98.112L98.31 25.3254L101.226 24.4074L117.102 1.07944H119.604L122.286 24.3714ZM146.193 13.6794C147.261 13.6794 148.209 13.5114 149.037 13.1754C149.865 12.8274 150.561 12.3474 151.125 11.7354C151.701 11.1114 152.133 10.3794 152.421 9.53944C152.721 8.69944 152.871 7.77544 152.871 6.76744C152.871 5.97544 152.715 5.29744 152.403 4.73344C152.091 4.15744 151.587 3.71944 150.891 3.41944C150.207 3.10744 149.313 2.95144 148.209 2.95144H143.025L143.709 1.29544H149.541C151.497 1.29544 153.063 1.54744 154.239 2.05144C155.415 2.55544 156.261 3.23344 156.777 4.08544C157.305 4.93744 157.569 5.87944 157.569 6.91144C157.569 8.12344 157.329 9.24544 156.849 10.2774C156.369 11.2974 155.661 12.1854 154.725 12.9414C153.789 13.6974 152.631 14.2854 151.251 14.7054C149.883 15.1134 148.299 15.3174 146.499 15.3174H139.389L139.803 13.6794H146.193ZM139.605 24.4794L142.071 25.3254L141.891 25.9554H131.757L131.955 25.3254L134.853 24.4254L141.459 2.77144L138.993 1.92544L139.173 1.29544H146.679L139.605 24.4794ZM160.973 12.3474C160.973 12.2514 160.949 12.1734 160.901 12.1134C160.865 12.0534 160.793 12.0234 160.685 12.0234C160.289 12.0234 159.893 12.1194 159.497 12.3114C159.113 12.4914 158.699 12.8454 158.255 13.3734C157.823 13.8894 157.331 14.6574 156.779 15.6774L156.167 15.4254C156.779 13.7934 157.421 12.5214 158.093 11.6094C158.777 10.6854 159.503 10.0314 160.271 9.64744C161.051 9.26344 161.879 9.07144 162.755 9.07144C163.115 9.07144 163.439 9.08944 163.727 9.12544C164.027 9.14944 164.321 9.19144 164.609 9.25144C164.897 9.29944 165.209 9.36544 165.545 9.44944L163.097 17.5494L163.007 17.2794C163.967 15.2034 164.873 13.5654 165.725 12.3654C166.589 11.1654 167.411 10.3134 168.191 9.80944C168.983 9.30544 169.757 9.05344 170.513 9.05344C171.317 9.05344 171.917 9.25744 172.313 9.66544C172.709 10.0734 172.907 10.6194 172.907 11.3034C172.907 11.8434 172.781 12.3294 172.529 12.7614C172.277 13.1814 171.941 13.5114 171.521 13.7514C171.101 13.9914 170.645 14.1114 170.153 14.1114C169.889 14.1114 169.679 14.0394 169.523 13.8954C169.379 13.7394 169.247 13.4994 169.127 13.1754C169.019 12.8394 168.893 12.6054 168.749 12.4734C168.605 12.3414 168.419 12.2754 168.191 12.2754C167.879 12.2754 167.531 12.4074 167.147 12.6714C166.775 12.9234 166.379 13.3014 165.959 13.8054C165.551 14.3094 165.137 14.9274 164.717 15.6594C164.297 16.3794 163.883 17.2074 163.475 18.1434C163.079 19.0674 162.701 20.0934 162.341 21.2214L160.847 25.9554H156.671L160.973 12.3474ZM181.906 9.05344C183.13 9.05344 184.156 9.29344 184.984 9.77344C185.812 10.2414 186.442 10.9194 186.874 11.8074C187.306 12.6834 187.522 13.7274 187.522 14.9394C187.522 16.4514 187.264 17.8914 186.748 19.2594C186.232 20.6274 185.518 21.8514 184.606 22.9314C183.694 23.9994 182.638 24.8454 181.438 25.4694C180.238 26.0814 178.96 26.3874 177.604 26.3874C176.404 26.3874 175.384 26.1534 174.544 25.6854C173.704 25.2054 173.068 24.5274 172.636 23.6514C172.204 22.7634 171.988 21.7134 171.988 20.5014C171.988 18.9894 172.246 17.5494 172.762 16.1814C173.29 14.8134 174.01 13.5954 174.922 12.5274C175.834 11.4474 176.884 10.6014 178.072 9.98944C179.272 9.36544 180.55 9.05344 181.906 9.05344ZM177.532 25.0734C178.096 25.0734 178.66 24.8274 179.224 24.3354C179.8 23.8434 180.346 23.1774 180.862 22.3374C181.378 21.4854 181.834 20.5374 182.23 19.4934C182.638 18.4374 182.962 17.3454 183.202 16.2174C183.442 15.0894 183.562 14.0034 183.562 12.9594C183.562 12.0354 183.43 11.3754 183.166 10.9794C182.914 10.5714 182.524 10.3674 181.996 10.3674C181.432 10.3674 180.862 10.6134 180.286 11.1054C179.71 11.5974 179.164 12.2694 178.648 13.1214C178.132 13.9614 177.67 14.9094 177.262 15.9654C176.866 17.0214 176.548 18.1134 176.308 19.2414C176.08 20.3574 175.966 21.4374 175.966 22.4814C175.966 23.4054 176.092 24.0714 176.344 24.4794C176.596 24.8754 176.992 25.0734 177.532 25.0734ZM195.801 2.73544C195.801 2.24344 195.915 1.79944 196.143 1.40344C196.383 0.995442 196.701 0.677443 197.097 0.449443C197.505 0.221443 197.973 0.107442 198.501 0.107442C199.269 0.107442 199.887 0.347443 200.355 0.827444C200.835 1.30744 201.075 1.91344 201.075 2.64544C201.075 3.14944 200.961 3.60544 200.733 4.01344C200.505 4.40944 200.187 4.72744 199.779 4.96744C199.383 5.20744 198.921 5.32744 198.393 5.32744C197.625 5.32744 197.001 5.08144 196.521 4.58944C196.041 4.08544 195.801 3.46744 195.801 2.73544ZM194.109 24.8574C193.425 27.1254 192.531 29.0214 191.427 30.5454C190.335 32.0694 189.135 33.2094 187.827 33.9654C186.519 34.7214 185.205 35.0994 183.885 35.0994C182.769 35.0994 181.935 34.8534 181.383 34.3614C180.831 33.8814 180.555 33.2814 180.555 32.5614C180.555 31.9854 180.735 31.4994 181.095 31.1034C181.443 30.7074 181.905 30.5094 182.481 30.5094C182.793 30.5094 183.039 30.6234 183.219 30.8514C183.399 31.0794 183.561 31.4634 183.705 32.0034C183.849 32.5554 184.041 32.9334 184.281 33.1374C184.521 33.3534 184.803 33.4614 185.127 33.4614C185.463 33.4614 185.793 33.3714 186.117 33.1914C186.441 33.0234 186.759 32.7294 187.071 32.3094C187.383 31.8894 187.701 31.3134 188.025 30.5814C188.337 29.8614 188.667 28.9434 189.015 27.8274L194.127 11.1234L194.901 11.9694C194.373 11.9334 193.839 12.0054 193.299 12.1854C192.771 12.3534 192.213 12.6594 191.625 13.1034C191.037 13.5474 190.395 14.1474 189.699 14.9034L189.177 14.4354C190.065 13.1634 190.923 12.1374 191.751 11.3574C192.591 10.5774 193.413 10.0074 194.217 9.64744C195.033 9.27544 195.831 9.08944 196.611 9.08944C197.175 9.08944 197.601 9.16144 197.889 9.30544C198.177 9.43744 198.351 9.65344 198.411 9.95344C198.483 10.2414 198.447 10.6194 198.303 11.0874L194.109 24.8574ZM208.929 10.3674C208.341 10.3674 207.783 10.5654 207.255 10.9614C206.739 11.3574 206.265 11.8974 205.833 12.5814C205.401 13.2534 205.029 14.0094 204.717 14.8494C204.417 15.6894 204.183 16.5654 204.015 17.4774C203.847 18.3774 203.763 19.2474 203.763 20.0874C203.763 21.2994 204.003 22.1694 204.483 22.6974C204.963 23.2254 205.635 23.4894 206.499 23.4894C207.123 23.4894 207.717 23.3814 208.281 23.1654C208.845 22.9494 209.397 22.5774 209.937 22.0494C210.477 21.5094 211.011 20.7534 211.539 19.7814L212.349 19.7994C211.641 21.5274 210.909 22.8714 210.153 23.8314C209.397 24.7914 208.587 25.4574 207.723 25.8294C206.859 26.2014 205.899 26.3874 204.843 26.3874C203.691 26.3874 202.707 26.1714 201.891 25.7394C201.087 25.3074 200.475 24.6894 200.055 23.8854C199.635 23.0694 199.425 22.0974 199.425 20.9694C199.425 19.7334 199.593 18.5334 199.929 17.3694C200.265 16.1934 200.739 15.1074 201.351 14.1114C201.975 13.1034 202.707 12.2214 203.547 11.4654C204.399 10.7094 205.329 10.1214 206.337 9.70144C207.357 9.26944 208.431 9.05344 209.559 9.05344C210.615 9.05344 211.455 9.20344 212.079 9.50344C212.715 9.80344 213.171 10.2054 213.447 10.7094C213.735 11.2014 213.879 11.7414 213.879 12.3294C213.879 12.8934 213.777 13.4514 213.573 14.0034C213.369 14.5434 213.081 15.0174 212.709 15.4254C212.073 15.7014 211.365 15.9834 210.585 16.2714C209.805 16.5474 208.983 16.8234 208.119 17.0994C207.255 17.3754 206.373 17.6454 205.473 17.9094C204.585 18.1614 203.709 18.4014 202.845 18.6294L202.917 17.4594C204.117 17.0634 205.143 16.6854 205.995 16.3254C206.847 15.9654 207.555 15.6174 208.119 15.2814C208.683 14.9334 209.121 14.5854 209.433 14.2374C209.745 13.8774 209.961 13.5174 210.081 13.1574C210.213 12.7854 210.279 12.3954 210.279 11.9874C210.279 11.6394 210.225 11.3514 210.117 11.1234C210.021 10.8834 209.871 10.6974 209.667 10.5654C209.475 10.4334 209.229 10.3674 208.929 10.3674ZM223.917 10.4394C223.269 10.4394 222.651 10.7154 222.063 11.2674C221.475 11.8194 220.953 12.5574 220.497 13.4814C220.041 14.3934 219.681 15.4254 219.417 16.5774C219.153 17.7174 219.021 18.8874 219.021 20.0874C219.021 21.2994 219.225 22.1694 219.633 22.6974C220.053 23.2254 220.695 23.4894 221.559 23.4894C222.135 23.4894 222.687 23.3754 223.215 23.1474C223.755 22.9194 224.283 22.5354 224.799 21.9954C225.315 21.4554 225.837 20.7174 226.365 19.7814L227.157 19.7994C226.461 21.4914 225.741 22.8174 224.997 23.7774C224.265 24.7374 223.479 25.4154 222.639 25.8114C221.811 26.1954 220.893 26.3874 219.885 26.3874C218.205 26.3874 216.921 25.9194 216.033 24.9834C215.145 24.0354 214.701 22.6974 214.701 20.9694C214.701 19.3254 214.971 17.7894 215.511 16.3614C216.063 14.9214 216.807 13.6554 217.743 12.5634C218.691 11.4594 219.783 10.6014 221.019 9.98944C222.267 9.36544 223.587 9.05344 224.979 9.05344C226.383 9.05344 227.397 9.31744 228.021 9.84544C228.657 10.3614 228.975 10.9854 228.975 11.7174C228.975 12.3414 228.765 12.8334 228.345 13.1934C227.937 13.5534 227.403 13.7394 226.743 13.7514C226.431 13.7514 226.173 13.6194 225.969 13.3554C225.777 13.0914 225.615 12.6714 225.483 12.0954C225.363 11.5314 225.171 11.1174 224.907 10.8534C224.655 10.5774 224.325 10.4394 223.917 10.4394ZM230.624 10.9614L230.948 9.48544H242.252L241.946 10.9614H230.624ZM235.214 20.2854C235.058 20.7414 234.938 21.1134 234.854 21.4014C234.782 21.6894 234.734 21.9234 234.71 22.1034C234.686 22.2834 234.674 22.4334 234.674 22.5534C234.674 22.7814 234.728 22.9494 234.836 23.0574C234.944 23.1534 235.094 23.2014 235.286 23.2014C235.538 23.2014 235.856 23.0934 236.24 22.8774C236.636 22.6494 237.098 22.2894 237.626 21.7974C238.154 21.2934 238.748 20.6334 239.408 19.8174L240.02 20.2674C239.288 21.4314 238.58 22.4034 237.896 23.1834C237.212 23.9634 236.564 24.5874 235.952 25.0554C235.34 25.5234 234.752 25.8594 234.188 26.0634C233.636 26.2674 233.108 26.3694 232.604 26.3694C231.932 26.3694 231.38 26.1834 230.948 25.8114C230.516 25.4394 230.3 24.7734 230.3 23.8134C230.3 23.4414 230.348 22.9674 230.444 22.3914C230.552 21.8034 230.75 21.0714 231.038 20.1954L235.646 5.41744H239.912L235.214 20.2854Z" fill="#161616"/>
    <path d="M7.60315 46.9107C7.60315 46.4254 7.49915 46.0174 7.29114 45.6867C7.08848 45.3507 6.74981 45.0974 6.27515 44.9267C5.80048 44.7507 5.15248 44.6627 4.33114 44.6627H1.89914L1.98714 43.8307H4.98714C5.96314 43.8307 6.74714 43.9614 7.33914 44.2227C7.93115 44.4841 8.36048 44.8414 8.62714 45.2947C8.89914 45.7427 9.03514 46.2521 9.03514 46.8227C9.03514 47.4094 8.89648 47.9454 8.61915 48.4307C8.34181 48.9107 7.90981 49.2947 7.32314 49.5827C6.73648 49.8654 5.97381 50.0067 5.03514 50.0067H1.98714L1.89914 49.1747H5.18714C5.65648 49.1747 6.07248 49.0894 6.43514 48.9187C6.79781 48.7481 7.08314 48.4974 7.29114 48.1667C7.49915 47.8307 7.60315 47.4121 7.60315 46.9107ZM3.10714 43.8307V53.8387L4.42714 54.2467V54.6467H0.435145V54.2467L1.75514 53.8387V44.6387L0.435145 44.2307V43.8307H3.10714ZM14.2673 50.1427L14.3073 50.7907C13.6353 50.9294 13.0859 51.0707 12.6593 51.2147C12.2326 51.3587 11.9019 51.5081 11.6673 51.6627C11.4379 51.8121 11.2779 51.9747 11.1873 52.1507C11.1019 52.3267 11.0593 52.5214 11.0593 52.7347C11.0593 53.0974 11.1686 53.3774 11.3873 53.5747C11.6059 53.7667 11.8859 53.8627 12.2273 53.8627C12.4993 53.8627 12.7446 53.7987 12.9633 53.6707C13.1873 53.5427 13.3659 53.3747 13.4993 53.1667C13.6326 52.9534 13.6993 52.7241 13.6993 52.4787V49.5987C13.6993 49.1774 13.5953 48.8494 13.3873 48.6147C13.1793 48.3747 12.8299 48.2547 12.3393 48.2547C12.1526 48.2547 11.9473 48.2787 11.7233 48.3267C11.5046 48.3694 11.2939 48.4387 11.0913 48.5347L11.5313 48.1267C11.5099 48.2921 11.4833 48.4521 11.4513 48.6067C11.4193 48.7561 11.3819 48.8921 11.3393 49.0147C11.3019 49.1321 11.2513 49.2281 11.1873 49.3027C11.1019 49.4147 10.9926 49.4947 10.8593 49.5427C10.7313 49.5854 10.5953 49.6067 10.4513 49.6067C10.2593 49.6067 10.1099 49.5641 10.0033 49.4787C9.8966 49.3934 9.84327 49.2867 9.84327 49.1587C9.84327 48.9881 9.92594 48.8094 10.0913 48.6227C10.2566 48.4307 10.4806 48.2494 10.7633 48.0787C11.0459 47.9081 11.3633 47.7694 11.7153 47.6627C12.0726 47.5561 12.4433 47.5027 12.8273 47.5027C13.3339 47.5027 13.7419 47.5801 14.0513 47.7347C14.3606 47.8841 14.5846 48.1027 14.7233 48.3907C14.8673 48.6787 14.9393 49.0334 14.9393 49.4547V53.1267C14.9393 53.3027 14.9633 53.4467 15.0113 53.5587C15.0646 53.6707 15.1419 53.7561 15.2433 53.8147C15.3446 53.8681 15.4699 53.8947 15.6193 53.8947C15.7419 53.8947 15.8726 53.8734 16.0113 53.8307C16.1499 53.7881 16.2886 53.7321 16.4273 53.6627V54.0867C16.2033 54.3267 15.9633 54.5027 15.7073 54.6147C15.4566 54.7267 15.2219 54.7827 15.0033 54.7827C14.7366 54.7827 14.5046 54.7214 14.3073 54.5987C14.1153 54.4761 13.9686 54.2974 13.8673 54.0627C13.7659 53.8281 13.7153 53.5427 13.7153 53.2067L13.7633 53.1427C13.6939 53.4734 13.5606 53.7641 13.3633 54.0147C13.1713 54.2601 12.9339 54.4547 12.6513 54.5987C12.3686 54.7374 12.0593 54.8067 11.7233 54.8067C11.1419 54.8067 10.6699 54.6521 10.3073 54.3427C9.9446 54.0281 9.76327 53.5774 9.76327 52.9907C9.76327 52.6761 9.82727 52.3907 9.95527 52.1347C10.0833 51.8734 10.3099 51.6307 10.6353 51.4067C10.9606 51.1827 11.4166 50.9694 12.0033 50.7667C12.5953 50.5587 13.3499 50.3507 14.2673 50.1427ZM19.1786 53.8947L20.4266 54.2707V54.6467H16.7066V54.2707L17.9466 53.8947V44.8467C17.8773 44.7721 17.7786 44.6947 17.6506 44.6147C17.5226 44.5294 17.3706 44.4441 17.1946 44.3587C17.024 44.2681 16.8346 44.1827 16.6266 44.1027V43.8627L19.0826 43.2067H19.2746L19.1786 44.5507V53.8947ZM24.6595 47.4387C25.2355 47.4387 25.7235 47.5641 26.1235 47.8147C26.5289 48.0654 26.8435 48.4307 27.0675 48.9107C27.2969 49.3854 27.4355 49.9667 27.4835 50.6547H22.3715L22.3795 50.0227L26.6435 49.8627L26.1155 50.1747C26.0835 49.7534 26.0062 49.3934 25.8835 49.0947C25.7609 48.7907 25.5902 48.5587 25.3715 48.3987C25.1529 48.2334 24.8809 48.1507 24.5555 48.1507C24.1609 48.1507 23.8169 48.2547 23.5235 48.4627C23.2302 48.6654 23.0035 48.9667 22.8435 49.3667C22.6835 49.7614 22.6035 50.2521 22.6035 50.8387C22.6035 51.4574 22.7182 51.9854 22.9475 52.4227C23.1769 52.8601 23.5049 53.1961 23.9315 53.4307C24.3582 53.6601 24.8622 53.7747 25.4435 53.7747C25.6729 53.7747 25.8942 53.7481 26.1075 53.6947C26.3209 53.6361 26.5315 53.5561 26.7395 53.4547C26.9475 53.3481 27.1475 53.2227 27.3395 53.0787L27.4995 53.3987C27.2222 53.7134 26.9342 53.9774 26.6355 54.1907C26.3369 54.3987 26.0275 54.5534 25.7075 54.6547C25.3875 54.7561 25.0515 54.8067 24.6995 54.8067C24.0435 54.8067 23.4622 54.6547 22.9555 54.3507C22.4542 54.0467 22.0595 53.6254 21.7715 53.0867C21.4889 52.5481 21.3475 51.9267 21.3475 51.2227C21.3475 50.5134 21.4809 49.8734 21.7475 49.3027C22.0142 48.7321 22.3955 48.2787 22.8915 47.9427C23.3875 47.6067 23.9769 47.4387 24.6595 47.4387ZM32.3141 54.0947C32.7461 54.0947 33.1275 53.9961 33.4581 53.7987C33.7888 53.6014 34.0448 53.2974 34.2261 52.8867C34.4128 52.4761 34.5061 51.9534 34.5061 51.3187C34.5061 50.6254 34.4155 50.0467 34.2341 49.5827C34.0581 49.1134 33.8048 48.7587 33.4741 48.5187C33.1488 48.2734 32.7568 48.1507 32.2981 48.1507C31.8661 48.1507 31.4848 48.2494 31.1541 48.4467C30.8288 48.6441 30.5728 48.9481 30.3861 49.3587C30.1995 49.7694 30.1061 50.2947 30.1061 50.9347C30.1061 51.6174 30.1941 52.1961 30.3701 52.6707C30.5515 53.1401 30.8075 53.4947 31.1381 53.7347C31.4688 53.9747 31.8608 54.0947 32.3141 54.0947ZM32.2741 54.8067C31.5701 54.8067 30.9515 54.6547 30.4181 54.3507C29.8848 54.0467 29.4715 53.6227 29.1781 53.0787C28.8848 52.5294 28.7381 51.9001 28.7381 51.1907C28.7381 50.4601 28.8928 49.8121 29.2021 49.2467C29.5115 48.6814 29.9355 48.2387 30.4741 47.9187C31.0181 47.5987 31.6395 47.4387 32.3381 47.4387C33.0475 47.4387 33.6661 47.5934 34.1941 47.9027C34.7275 48.2067 35.1408 48.6307 35.4341 49.1747C35.7328 49.7134 35.8821 50.3401 35.8821 51.0547C35.8821 51.7854 35.7275 52.4334 35.4181 52.9987C35.1088 53.5641 34.6821 54.0067 34.1381 54.3267C33.5995 54.6467 32.9781 54.8067 32.2741 54.8067ZM40.472 47.4387C41.048 47.4387 41.536 47.5641 41.936 47.8147C42.3414 48.0654 42.656 48.4307 42.88 48.9107C43.1094 49.3854 43.248 49.9667 43.296 50.6547H38.184L38.192 50.0227L42.456 49.8627L41.928 50.1747C41.896 49.7534 41.8187 49.3934 41.696 49.0947C41.5734 48.7907 41.4027 48.5587 41.184 48.3987C40.9654 48.2334 40.6934 48.1507 40.368 48.1507C39.9734 48.1507 39.6294 48.2547 39.336 48.4627C39.0427 48.6654 38.816 48.9667 38.656 49.3667C38.496 49.7614 38.416 50.2521 38.416 50.8387C38.416 51.4574 38.5307 51.9854 38.76 52.4227C38.9894 52.8601 39.3174 53.1961 39.744 53.4307C40.1707 53.6601 40.6747 53.7747 41.256 53.7747C41.4854 53.7747 41.7067 53.7481 41.92 53.6947C42.1334 53.6361 42.344 53.5561 42.552 53.4547C42.76 53.3481 42.96 53.2227 43.152 53.0787L43.312 53.3987C43.0347 53.7134 42.7467 53.9774 42.448 54.1907C42.1494 54.3987 41.84 54.5534 41.52 54.6547C41.2 54.7561 40.864 54.8067 40.512 54.8067C39.856 54.8067 39.2747 54.6547 38.768 54.3507C38.2667 54.0467 37.872 53.6254 37.584 53.0867C37.3014 52.5481 37.16 51.9267 37.16 51.2227C37.16 50.5134 37.2934 49.8734 37.56 49.3027C37.8267 48.7321 38.208 48.2787 38.704 47.9427C39.2 47.6067 39.7894 47.4387 40.472 47.4387ZM46.8466 48.9427V53.8947L48.0866 54.2707V54.6467H44.3666V54.2707L45.6066 53.8947V49.1267C45.5213 49.0414 45.3853 48.9507 45.1986 48.8547C45.012 48.7534 44.7373 48.6361 44.3746 48.5027V48.2787L46.3746 47.4307H46.5666L46.8466 48.9427ZM49.1666 54.2707L50.4146 53.8947V50.0547C50.4146 49.7507 50.3506 49.4921 50.2226 49.2787C50.1 49.0654 49.916 48.9027 49.6706 48.7907C49.4253 48.6734 49.1186 48.6147 48.7506 48.6147C48.3346 48.6147 47.9426 48.6867 47.5746 48.8307C47.212 48.9747 46.9453 49.1481 46.7746 49.3507L46.4866 49.0867C46.8066 48.7667 47.0973 48.5027 47.3586 48.2947C47.6253 48.0814 47.876 47.9134 48.1106 47.7907C48.3506 47.6627 48.5933 47.5721 48.8386 47.5187C49.084 47.4654 49.3453 47.4387 49.6226 47.4387C50.3106 47.4387 50.82 47.6494 51.1506 48.0707C51.4813 48.4867 51.6466 49.1401 51.6466 50.0307V53.8947L52.9026 54.2707V54.6467H49.1666V54.2707ZM59.9875 48.3027L57.3315 54.8067H56.7555L53.7315 48.3907L52.6995 48.0067V47.5987H56.1635V48.0067L55.0835 48.3507L57.4275 53.3427H57.2835L59.2355 48.3107L58.1635 48.0067V47.5987H60.8675V48.0067L59.9875 48.3027ZM63.385 45.1587C63.0864 45.1587 62.841 45.0681 62.649 44.8867C62.4624 44.7001 62.369 44.4654 62.369 44.1827C62.369 43.9001 62.4624 43.6681 62.649 43.4867C62.841 43.3001 63.0864 43.2067 63.385 43.2067C63.6837 43.2067 63.9264 43.3001 64.113 43.4867C64.2997 43.6681 64.393 43.9001 64.393 44.1827C64.393 44.4654 64.2997 44.7001 64.113 44.8867C63.9264 45.0681 63.6837 45.1587 63.385 45.1587ZM64.153 47.4387L64.097 48.8227V53.8947L65.337 54.2707V54.6467H61.625V54.2707L62.857 53.8947V49.0227C62.7984 48.9641 62.7024 48.8947 62.569 48.8147C62.4357 48.7347 62.2864 48.6547 62.121 48.5747C61.961 48.4947 61.7984 48.4281 61.633 48.3747V48.0867L63.953 47.4387H64.153ZM70.9414 47.4867C71.2081 47.4867 71.4054 47.5534 71.5334 47.6867C71.6667 47.8201 71.7334 47.9961 71.7334 48.2147C71.7334 48.4707 71.6614 48.6761 71.5174 48.8307C71.3734 48.9801 71.1787 49.0547 70.9334 49.0547C70.7947 49.0547 70.6534 49.0361 70.5094 48.9987C70.3707 48.9561 70.2267 48.9161 70.0774 48.8787C69.9281 48.8414 69.7681 48.8227 69.5974 48.8227C69.4747 48.8227 69.3414 48.8387 69.1974 48.8707C69.0534 48.9027 68.9094 48.9507 68.7654 49.0147C68.6214 49.0734 68.4934 49.1454 68.3814 49.2307L68.1894 48.9507C68.5307 48.6894 68.8374 48.4681 69.1094 48.2867C69.3814 48.1001 69.6294 47.9481 69.8534 47.8307C70.0774 47.7134 70.2774 47.6281 70.4534 47.5747C70.6347 47.5161 70.7974 47.4867 70.9414 47.4867ZM68.5654 48.9427V53.8947L69.8454 54.2707V54.6467H66.0854V54.2707L67.3254 53.8947V49.1267C67.2561 49.0574 67.1627 48.9907 67.0454 48.9267C66.9281 48.8627 66.7894 48.7961 66.6294 48.7267C66.4694 48.6521 66.2907 48.5774 66.0934 48.5027V48.2787L68.2294 47.4307H68.4214L68.5654 48.9427ZM75.8766 54.0947C76.3086 54.0947 76.69 53.9961 77.0206 53.7987C77.3513 53.6014 77.6073 53.2974 77.7886 52.8867C77.9753 52.4761 78.0686 51.9534 78.0686 51.3187C78.0686 50.6254 77.978 50.0467 77.7966 49.5827C77.6206 49.1134 77.3673 48.7587 77.0366 48.5187C76.7113 48.2734 76.3193 48.1507 75.8606 48.1507C75.4286 48.1507 75.0473 48.2494 74.7166 48.4467C74.3913 48.6441 74.1353 48.9481 73.9486 49.3587C73.762 49.7694 73.6686 50.2947 73.6686 50.9347C73.6686 51.6174 73.7566 52.1961 73.9326 52.6707C74.114 53.1401 74.37 53.4947 74.7006 53.7347C75.0313 53.9747 75.4233 54.0947 75.8766 54.0947ZM75.8366 54.8067C75.1326 54.8067 74.514 54.6547 73.9806 54.3507C73.4473 54.0467 73.034 53.6227 72.7406 53.0787C72.4473 52.5294 72.3006 51.9001 72.3006 51.1907C72.3006 50.4601 72.4553 49.8121 72.7646 49.2467C73.074 48.6814 73.498 48.2387 74.0366 47.9187C74.5806 47.5987 75.202 47.4387 75.9006 47.4387C76.61 47.4387 77.2286 47.5934 77.7566 47.9027C78.29 48.2067 78.7033 48.6307 78.9966 49.1747C79.2953 49.7134 79.4446 50.3401 79.4446 51.0547C79.4446 51.7854 79.29 52.4334 78.9806 52.9987C78.6713 53.5641 78.2446 54.0067 77.7006 54.3267C77.162 54.6467 76.5406 54.8067 75.8366 54.8067ZM83.0185 48.9427V53.8947L84.2585 54.2707V54.6467H80.5385V54.2707L81.7785 53.8947V49.1267C81.6932 49.0414 81.5572 48.9507 81.3705 48.8547C81.1839 48.7534 80.9092 48.6361 80.5465 48.5027V48.2787L82.5465 47.4307H82.7385L83.0185 48.9427ZM85.3385 54.2707L86.5865 53.8947V50.0547C86.5865 49.7507 86.5225 49.4921 86.3945 49.2787C86.2719 49.0654 86.0879 48.9027 85.8425 48.7907C85.5972 48.6734 85.2905 48.6147 84.9225 48.6147C84.5065 48.6147 84.1145 48.6867 83.7465 48.8307C83.3839 48.9747 83.1172 49.1481 82.9465 49.3507L82.6585 49.0867C82.9785 48.7667 83.2692 48.5027 83.5305 48.2947C83.7972 48.0814 84.0479 47.9134 84.2825 47.7907C84.5225 47.6627 84.7652 47.5721 85.0105 47.5187C85.2559 47.4654 85.5172 47.4387 85.7945 47.4387C86.4825 47.4387 86.9919 47.6494 87.3225 48.0707C87.6532 48.4867 87.8185 49.1401 87.8185 50.0307V53.8947L89.0745 54.2707V54.6467H85.3385V54.2707ZM92.1748 48.9427V53.8947L93.3508 54.2707V54.6467H89.6948V54.2707L90.9348 53.8947V49.1267C90.8494 49.0414 90.7134 48.9507 90.5268 48.8547C90.3401 48.7534 90.0654 48.6361 89.7028 48.5027V48.2787L91.7028 47.4307H91.8948L92.1748 48.9427ZM96.6468 49.4227V53.8947L97.8148 54.2707V54.6467H94.2308V54.2707L95.4068 53.8947V49.9347C95.4068 49.6414 95.3454 49.3961 95.2228 49.1987C95.1001 49.0014 94.9241 48.8547 94.6948 48.7587C94.4708 48.6627 94.2014 48.6147 93.8868 48.6147C93.5294 48.6147 93.1774 48.6787 92.8308 48.8067C92.4894 48.9347 92.2388 49.0947 92.0788 49.2867L91.8148 48.9827C92.1134 48.6841 92.3828 48.4361 92.6228 48.2387C92.8681 48.0414 93.1028 47.8841 93.3268 47.7667C93.5561 47.6494 93.7828 47.5667 94.0068 47.5187C94.2361 47.4654 94.4814 47.4387 94.7428 47.4387C95.1961 47.4387 95.5614 47.5294 95.8388 47.7107C96.1214 47.8921 96.3268 48.1321 96.4548 48.4307C96.5828 48.7294 96.6468 49.0601 96.6468 49.4227ZM101.119 49.8307V53.8947L102.367 54.2707V54.6467H98.7028V54.2707L99.8788 53.8947V49.9427C99.8788 49.6387 99.8148 49.3907 99.6868 49.1987C99.5641 49.0067 99.3881 48.8627 99.1588 48.7667C98.9348 48.6654 98.6681 48.6147 98.3588 48.6147C97.9961 48.6147 97.6414 48.6787 97.2948 48.8067C96.9534 48.9347 96.7028 49.0974 96.5428 49.2947L96.2788 48.9827C96.5774 48.6894 96.8494 48.4441 97.0948 48.2467C97.3401 48.0441 97.5748 47.8841 97.7988 47.7667C98.0228 47.6494 98.2468 47.5667 98.4708 47.5187C98.7001 47.4654 98.9454 47.4387 99.2068 47.4387C99.8841 47.4387 100.372 47.6467 100.671 48.0627C100.969 48.4734 101.119 49.0627 101.119 49.8307ZM106.503 47.4387C107.079 47.4387 107.567 47.5641 107.967 47.8147C108.373 48.0654 108.687 48.4307 108.911 48.9107C109.141 49.3854 109.279 49.9667 109.327 50.6547H104.215L104.223 50.0227L108.487 49.8627L107.959 50.1747C107.927 49.7534 107.85 49.3934 107.727 49.0947C107.605 48.7907 107.434 48.5587 107.215 48.3987C106.997 48.2334 106.725 48.1507 106.399 48.1507C106.005 48.1507 105.661 48.2547 105.367 48.4627C105.074 48.6654 104.847 48.9667 104.687 49.3667C104.527 49.7614 104.447 50.2521 104.447 50.8387C104.447 51.4574 104.562 51.9854 104.791 52.4227C105.021 52.8601 105.349 53.1961 105.775 53.4307C106.202 53.6601 106.706 53.7747 107.287 53.7747C107.517 53.7747 107.738 53.7481 107.951 53.6947C108.165 53.6361 108.375 53.5561 108.583 53.4547C108.791 53.3481 108.991 53.2227 109.183 53.0787L109.343 53.3987C109.066 53.7134 108.778 53.9774 108.479 54.1907C108.181 54.3987 107.871 54.5534 107.551 54.6547C107.231 54.7561 106.895 54.8067 106.543 54.8067C105.887 54.8067 105.306 54.6547 104.799 54.3507C104.298 54.0467 103.903 53.6254 103.615 53.0867C103.333 52.5481 103.191 51.9267 103.191 51.2227C103.191 50.5134 103.325 49.8734 103.591 49.3027C103.858 48.7321 104.239 48.2787 104.735 47.9427C105.231 47.6067 105.821 47.4387 106.503 47.4387ZM112.878 48.9427V53.8947L114.118 54.2707V54.6467H110.398V54.2707L111.638 53.8947V49.1267C111.553 49.0414 111.417 48.9507 111.23 48.8547C111.043 48.7534 110.769 48.6361 110.406 48.5027V48.2787L112.406 47.4307H112.598L112.878 48.9427ZM115.198 54.2707L116.446 53.8947V50.0547C116.446 49.7507 116.382 49.4921 116.254 49.2787C116.131 49.0654 115.947 48.9027 115.702 48.7907C115.457 48.6734 115.15 48.6147 114.782 48.6147C114.366 48.6147 113.974 48.6867 113.606 48.8307C113.243 48.9747 112.977 49.1481 112.806 49.3507L112.518 49.0867C112.838 48.7667 113.129 48.5027 113.39 48.2947C113.657 48.0814 113.907 47.9134 114.142 47.7907C114.382 47.6627 114.625 47.5721 114.87 47.5187C115.115 47.4654 115.377 47.4387 115.654 47.4387C116.342 47.4387 116.851 47.6494 117.182 48.0707C117.513 48.4867 117.678 49.1401 117.678 50.0307V53.8947L118.934 54.2707V54.6467H115.198V54.2707ZM121.706 52.6307C121.706 53.0094 121.818 53.2894 122.042 53.4707C122.266 53.6467 122.591 53.7347 123.018 53.7347C123.21 53.7347 123.421 53.7161 123.65 53.6787C123.879 53.6414 124.125 53.5827 124.386 53.5027V53.9347C124.061 54.1534 123.775 54.3267 123.53 54.4547C123.285 54.5774 123.063 54.6627 122.866 54.7107C122.669 54.7587 122.477 54.7827 122.29 54.7827C121.927 54.7827 121.61 54.7187 121.338 54.5907C121.066 54.4574 120.853 54.2601 120.698 53.9987C120.549 53.7321 120.474 53.4067 120.474 53.0227V48.7107L119.498 48.1347V47.9267C119.647 47.8414 119.789 47.7561 119.922 47.6707C120.055 47.5801 120.183 47.4894 120.306 47.3987C120.434 47.3027 120.557 47.2067 120.674 47.1107C120.791 47.0147 120.909 46.9134 121.026 46.8067C121.149 46.6947 121.271 46.5801 121.394 46.4627H121.706V47.8467V52.6307ZM121.226 48.4227L121.234 47.5987H124.17L124.066 48.4227H121.226ZM132.887 48.8387L132.359 49.0787C131.895 49.3187 131.524 49.5721 131.247 49.8387C130.975 50.1001 130.778 50.3854 130.655 50.6947C130.538 51.0041 130.479 51.3481 130.479 51.7267C130.479 52.1854 130.567 52.5721 130.743 52.8867C130.919 53.2014 131.175 53.4387 131.511 53.5987C131.847 53.7587 132.255 53.8387 132.735 53.8387C133.242 53.8387 133.724 53.7267 134.183 53.5027C134.647 53.2787 135.084 52.9001 135.495 52.3667L135.711 52.0547C135.967 51.6707 136.207 51.2147 136.431 50.6867C136.655 50.1534 136.863 49.5321 137.055 48.8227L135.831 48.4627V48.0707H139.351V48.4627L138.047 48.8227C137.748 49.6654 137.444 50.4041 137.135 51.0387C136.831 51.6681 136.519 52.2121 136.199 52.6707L135.999 52.9267C135.642 53.3907 135.268 53.7614 134.879 54.0387C134.495 54.3107 134.095 54.5081 133.679 54.6307C133.263 54.7481 132.82 54.8067 132.351 54.8067C131.652 54.8067 131.068 54.6841 130.599 54.4387C130.135 54.1934 129.783 53.8574 129.543 53.4307C129.308 53.0041 129.191 52.5187 129.191 51.9747C129.191 51.5214 129.284 51.0921 129.471 50.6867C129.663 50.2814 129.97 49.8974 130.391 49.5347C130.818 49.1667 131.383 48.8201 132.087 48.4947L132.583 48.2707C133.282 47.8921 133.772 47.5107 134.055 47.1267C134.338 46.7374 134.479 46.3107 134.479 45.8467C134.479 45.3987 134.356 45.0414 134.111 44.7747C133.871 44.5081 133.503 44.3747 133.007 44.3747C132.554 44.3747 132.183 44.4947 131.895 44.7347C131.607 44.9694 131.463 45.3134 131.463 45.7667C131.463 45.9854 131.492 46.1934 131.551 46.3907C131.615 46.5827 131.719 46.7881 131.863 47.0067C132.012 47.2201 132.218 47.4761 132.479 47.7747L137.847 53.8147L139.423 54.2627V54.6467H136.935L131.719 48.7187C131.351 48.3027 131.066 47.9427 130.863 47.6387C130.666 47.3294 130.527 47.0467 130.447 46.7907C130.372 46.5294 130.335 46.2654 130.335 45.9987C130.335 45.5294 130.444 45.1214 130.663 44.7747C130.882 44.4227 131.194 44.1507 131.599 43.9587C132.01 43.7667 132.5 43.6707 133.071 43.6707C133.631 43.6707 134.095 43.7667 134.463 43.9587C134.831 44.1454 135.108 44.3961 135.295 44.7107C135.482 45.0201 135.575 45.3667 135.575 45.7507C135.575 46.0121 135.53 46.2681 135.439 46.5187C135.354 46.7694 135.207 47.0227 134.999 47.2787C134.796 47.5294 134.522 47.7854 134.175 48.0467C133.828 48.3027 133.399 48.5667 132.887 48.8387ZM150.681 46.9107C150.681 46.4254 150.577 46.0174 150.369 45.6867C150.167 45.3507 149.828 45.0974 149.353 44.9267C148.879 44.7507 148.231 44.6627 147.409 44.6627H144.977L145.065 43.8307H148.065C149.041 43.8307 149.825 43.9614 150.417 44.2227C151.009 44.4841 151.439 44.8414 151.705 45.2947C151.977 45.7427 152.113 46.2521 152.113 46.8227C152.113 47.4094 151.975 47.9454 151.697 48.4307C151.42 48.9107 150.988 49.2947 150.401 49.5827C149.815 49.8654 149.052 50.0067 148.113 50.0067H145.065L144.977 49.1747H148.265C148.735 49.1747 149.151 49.0894 149.513 48.9187C149.876 48.7481 150.161 48.4974 150.369 48.1667C150.577 47.8307 150.681 47.4121 150.681 46.9107ZM146.185 43.8307V53.8387L147.505 54.2467V54.6467H143.513V54.2467L144.833 53.8387V44.6387L143.513 44.2307V43.8307H146.185ZM157.863 47.4867C158.13 47.4867 158.327 47.5534 158.455 47.6867C158.589 47.8201 158.655 47.9961 158.655 48.2147C158.655 48.4707 158.583 48.6761 158.439 48.8307C158.295 48.9801 158.101 49.0547 157.855 49.0547C157.717 49.0547 157.575 49.0361 157.431 48.9987C157.293 48.9561 157.149 48.9161 156.999 48.8787C156.85 48.8414 156.69 48.8227 156.519 48.8227C156.397 48.8227 156.263 48.8387 156.119 48.8707C155.975 48.9027 155.831 48.9507 155.687 49.0147C155.543 49.0734 155.415 49.1454 155.303 49.2307L155.111 48.9507C155.453 48.6894 155.759 48.4681 156.031 48.2867C156.303 48.1001 156.551 47.9481 156.775 47.8307C156.999 47.7134 157.199 47.6281 157.375 47.5747C157.557 47.5161 157.719 47.4867 157.863 47.4867ZM155.487 48.9427V53.8947L156.767 54.2707V54.6467H153.007V54.2707L154.247 53.8947V49.1267C154.178 49.0574 154.085 48.9907 153.967 48.9267C153.85 48.8627 153.711 48.7961 153.551 48.7267C153.391 48.6521 153.213 48.5774 153.015 48.5027V48.2787L155.151 47.4307H155.343L155.487 48.9427ZM162.535 47.4387C163.111 47.4387 163.599 47.5641 163.999 47.8147C164.404 48.0654 164.719 48.4307 164.943 48.9107C165.172 49.3854 165.311 49.9667 165.359 50.6547H160.247L160.255 50.0227L164.519 49.8627L163.991 50.1747C163.959 49.7534 163.881 49.3934 163.759 49.0947C163.636 48.7907 163.465 48.5587 163.247 48.3987C163.028 48.2334 162.756 48.1507 162.431 48.1507C162.036 48.1507 161.692 48.2547 161.399 48.4627C161.105 48.6654 160.879 48.9667 160.719 49.3667C160.559 49.7614 160.479 50.2521 160.479 50.8387C160.479 51.4574 160.593 51.9854 160.823 52.4227C161.052 52.8601 161.38 53.1961 161.807 53.4307C162.233 53.6601 162.737 53.7747 163.319 53.7747C163.548 53.7747 163.769 53.7481 163.983 53.6947C164.196 53.6361 164.407 53.5561 164.615 53.4547C164.823 53.3481 165.023 53.2227 165.215 53.0787L165.375 53.3987C165.097 53.7134 164.809 53.9774 164.511 54.1907C164.212 54.3987 163.903 54.5534 163.583 54.6547C163.263 54.7561 162.927 54.8067 162.575 54.8067C161.919 54.8067 161.337 54.6547 160.831 54.3507C160.329 54.0467 159.935 53.6254 159.647 53.0867C159.364 52.5481 159.223 51.9267 159.223 51.2227C159.223 50.5134 159.356 49.8734 159.623 49.3027C159.889 48.7321 160.271 48.2787 160.767 47.9427C161.263 47.6067 161.852 47.4387 162.535 47.4387ZM171.045 54.2707L172.285 53.8947V50.0547C172.285 49.7507 172.224 49.4921 172.101 49.2787C171.978 49.0654 171.794 48.9027 171.549 48.7907C171.304 48.6734 170.997 48.6147 170.629 48.6147C170.213 48.6147 169.821 48.6867 169.453 48.8307C169.085 48.9747 168.816 49.1481 168.645 49.3507L168.365 49.0867C168.685 48.7667 168.976 48.5027 169.237 48.2947C169.504 48.0814 169.754 47.9134 169.989 47.7907C170.229 47.6627 170.472 47.5721 170.717 47.5187C170.962 47.4654 171.224 47.4387 171.501 47.4387C172.189 47.4387 172.698 47.6494 173.029 48.0707C173.36 48.4867 173.525 49.1401 173.525 50.0307V53.8947L174.773 54.2707V54.6467H171.045V54.2707ZM169.965 54.6467H166.245V54.2707L167.485 53.8947V44.8467C167.416 44.7721 167.317 44.6947 167.189 44.6147C167.061 44.5294 166.909 44.4441 166.733 44.3587C166.562 44.2681 166.373 44.1827 166.165 44.1027V43.8627L168.621 43.2067H168.813L168.717 44.5507V53.8947L169.965 54.2707V54.6467ZM177.182 45.1587C176.883 45.1587 176.638 45.0681 176.446 44.8867C176.259 44.7001 176.166 44.4654 176.166 44.1827C176.166 43.9001 176.259 43.6681 176.446 43.4867C176.638 43.3001 176.883 43.2067 177.182 43.2067C177.481 43.2067 177.723 43.3001 177.91 43.4867C178.097 43.6681 178.19 43.9001 178.19 44.1827C178.19 44.4654 178.097 44.7001 177.91 44.8867C177.723 45.0681 177.481 45.1587 177.182 45.1587ZM177.95 47.4387L177.894 48.8227V53.8947L179.134 54.2707V54.6467H175.422V54.2707L176.654 53.8947V49.0227C176.595 48.9641 176.499 48.8947 176.366 48.8147C176.233 48.7347 176.083 48.6547 175.918 48.5747C175.758 48.4947 175.595 48.4281 175.43 48.3747V48.0867L177.75 47.4387H177.95ZM182.746 47.4387C183.061 47.4387 183.352 47.4681 183.618 47.5267C183.89 47.5854 184.194 47.6921 184.53 47.8467L184.674 49.7747H184.202L183.394 47.8227L184.058 48.5267C183.829 48.3774 183.608 48.2654 183.394 48.1907C183.186 48.1161 182.968 48.0787 182.738 48.0787C182.29 48.0787 181.941 48.1667 181.69 48.3427C181.445 48.5187 181.322 48.7667 181.322 49.0867C181.322 49.3694 181.4 49.5934 181.554 49.7587C181.714 49.9241 181.922 50.0627 182.178 50.1747C182.434 50.2867 182.712 50.3987 183.01 50.5107C183.234 50.5907 183.456 50.6867 183.674 50.7987C183.893 50.9054 184.093 51.0387 184.274 51.1987C184.456 51.3587 184.6 51.5561 184.706 51.7907C184.818 52.0254 184.874 52.3161 184.874 52.6627C184.874 53.1214 184.76 53.5107 184.53 53.8307C184.301 54.1507 183.984 54.3934 183.578 54.5587C183.173 54.7187 182.701 54.7987 182.162 54.7987C181.832 54.7987 181.522 54.7747 181.234 54.7267C180.946 54.6787 180.674 54.6014 180.418 54.4947L180.066 52.5027H180.57L181.618 54.5347L180.642 53.8787C180.845 53.9694 181.021 54.0387 181.17 54.0867C181.32 54.1294 181.458 54.1587 181.586 54.1747C181.72 54.1854 181.853 54.1907 181.986 54.1907C182.546 54.1907 182.981 54.0894 183.29 53.8867C183.605 53.6787 183.762 53.3721 183.762 52.9667C183.762 52.7267 183.704 52.5294 183.586 52.3747C183.474 52.2201 183.32 52.0921 183.122 51.9907C182.93 51.8841 182.72 51.7907 182.49 51.7107C182.266 51.6254 182.048 51.5401 181.834 51.4547C181.546 51.3267 181.282 51.1827 181.042 51.0227C180.808 50.8627 180.618 50.6521 180.474 50.3907C180.336 50.1294 180.266 49.7961 180.266 49.3907C180.266 48.9801 180.373 48.6307 180.586 48.3427C180.8 48.0494 181.093 47.8254 181.466 47.6707C181.84 47.5161 182.266 47.4387 182.746 47.4387ZM188.175 52.6307C188.175 53.0094 188.287 53.2894 188.511 53.4707C188.735 53.6467 189.06 53.7347 189.487 53.7347C189.679 53.7347 189.89 53.7161 190.119 53.6787C190.348 53.6414 190.594 53.5827 190.855 53.5027V53.9347C190.53 54.1534 190.244 54.3267 189.999 54.4547C189.754 54.5774 189.532 54.6627 189.335 54.7107C189.138 54.7587 188.946 54.7827 188.759 54.7827C188.396 54.7827 188.079 54.7187 187.807 54.5907C187.535 54.4574 187.322 54.2601 187.167 53.9987C187.018 53.7321 186.943 53.4067 186.943 53.0227V48.7107L185.967 48.1347V47.9267C186.116 47.8414 186.258 47.7561 186.391 47.6707C186.524 47.5801 186.652 47.4894 186.775 47.3987C186.903 47.3027 187.026 47.2067 187.143 47.1107C187.26 47.0147 187.378 46.9134 187.495 46.8067C187.618 46.6947 187.74 46.5801 187.863 46.4627H188.175V47.8467V52.6307ZM187.695 48.4227L187.703 47.5987H190.639L190.535 48.4227H187.695ZM195.142 54.0947C195.574 54.0947 195.956 53.9961 196.286 53.7987C196.617 53.6014 196.873 53.2974 197.054 52.8867C197.241 52.4761 197.334 51.9534 197.334 51.3187C197.334 50.6254 197.244 50.0467 197.062 49.5827C196.886 49.1134 196.633 48.7587 196.302 48.5187C195.977 48.2734 195.585 48.1507 195.126 48.1507C194.694 48.1507 194.313 48.2494 193.982 48.4467C193.657 48.6441 193.401 48.9481 193.214 49.3587C193.028 49.7694 192.934 50.2947 192.934 50.9347C192.934 51.6174 193.022 52.1961 193.198 52.6707C193.38 53.1401 193.636 53.4947 193.966 53.7347C194.297 53.9747 194.689 54.0947 195.142 54.0947ZM195.102 54.8067C194.398 54.8067 193.78 54.6547 193.246 54.3507C192.713 54.0467 192.3 53.6227 192.006 53.0787C191.713 52.5294 191.566 51.9001 191.566 51.1907C191.566 50.4601 191.721 49.8121 192.03 49.2467C192.34 48.6814 192.764 48.2387 193.302 47.9187C193.846 47.5987 194.468 47.4387 195.166 47.4387C195.876 47.4387 196.494 47.5934 197.022 47.9027C197.556 48.2067 197.969 48.6307 198.262 49.1747C198.561 49.7134 198.71 50.3401 198.71 51.0547C198.71 51.7854 198.556 52.4334 198.246 52.9987C197.937 53.5641 197.51 54.0067 196.966 54.3267C196.428 54.6467 195.806 54.8067 195.102 54.8067ZM204.66 47.4867C204.927 47.4867 205.124 47.5534 205.252 47.6867C205.385 47.8201 205.452 47.9961 205.452 48.2147C205.452 48.4707 205.38 48.6761 205.236 48.8307C205.092 48.9801 204.897 49.0547 204.652 49.0547C204.513 49.0547 204.372 49.0361 204.228 48.9987C204.089 48.9561 203.945 48.9161 203.796 48.8787C203.647 48.8414 203.487 48.8227 203.316 48.8227C203.193 48.8227 203.06 48.8387 202.916 48.8707C202.772 48.9027 202.628 48.9507 202.484 49.0147C202.34 49.0734 202.212 49.1454 202.1 49.2307L201.908 48.9507C202.249 48.6894 202.556 48.4681 202.828 48.2867C203.1 48.1001 203.348 47.9481 203.572 47.8307C203.796 47.7134 203.996 47.6281 204.172 47.5747C204.353 47.5161 204.516 47.4867 204.66 47.4867ZM202.284 48.9427V53.8947L203.564 54.2707V54.6467H199.804V54.2707L201.044 53.8947V49.1267C200.975 49.0574 200.881 48.9907 200.764 48.9267C200.647 48.8627 200.508 48.7961 200.348 48.7267C200.188 48.6521 200.009 48.5774 199.812 48.5027V48.2787L201.948 47.4307H202.14L202.284 48.9427ZM210.509 53.4867L209.805 54.9187L206.781 48.3907L205.749 48.0067V47.5987H209.213V48.0067L208.133 48.3507L210.509 53.4867ZM207.517 58.7987C207.213 58.7987 206.965 58.7187 206.773 58.5587C206.581 58.3987 206.485 58.1774 206.485 57.8947C206.485 57.7507 206.512 57.6254 206.565 57.5187C206.624 57.4121 206.698 57.3267 206.789 57.2627C206.88 57.2041 206.976 57.1747 207.077 57.1747C207.178 57.1747 207.282 57.1961 207.389 57.2387C207.496 57.2867 207.605 57.3321 207.717 57.3747C207.834 57.4227 207.954 57.4467 208.077 57.4467C208.21 57.4467 208.333 57.4147 208.445 57.3507C208.562 57.2921 208.674 57.1854 208.781 57.0307C208.893 56.8814 209.002 56.6734 209.109 56.4067L209.949 54.3027L210.285 53.3987L212.181 48.3107L211.109 48.0067V47.5987H213.837V48.0067L212.973 48.3027L209.821 56.3587C209.576 56.9774 209.338 57.4627 209.109 57.8147C208.88 58.1721 208.637 58.4254 208.381 58.5747C208.125 58.7241 207.837 58.7987 207.517 58.7987Z" fill="#C0B283"/>
    </svg>
    