<?xml version="1.0" encoding="UTF-8" standalone="no"?>
<!-- Created with Inkscape (http://www.inkscape.org/) -->

<svg
   width="201.27121mm"
   height="65.701569mm"
   viewBox="0 0 201.27121 65.701569"
   version="1.1"
   id="svg1"
   xml:space="preserve"
   xmlns="http://www.w3.org/2000/svg"
   xmlns:svg="http://www.w3.org/2000/svg"><defs
     id="defs1" /><g
     id="layer1"
     transform="translate(-7.2682995,-3.8550344)"><path
       style="fill:#000000"
       d="m 135.21756,47.219952 v -22.33649 h 4.04646 4.04647 v 2.14463 c 0,1.17954 0.0273,2.14347 0.0607,2.14206 0.0334,-0.001 0.21427,-0.22902 0.40198,-0.50581 1.17639,-1.73467 2.88672,-3.21954 4.55771,-3.95693 1.49299,-0.65882 3.10338,-0.92746 5.09577,-0.85005 1.88444,0.0732 3.36452,0.43846 4.89559,1.20806 3.34596,1.68189 5.91643,5.1747 7.04296,9.57011 0.53217,2.07638 0.63821,3.07196 0.64214,6.02915 0.003,2.36594 -0.0157,2.75578 -0.18717,3.88014 -0.47468,3.11185 -1.37996,5.58423 -2.83474,7.74181 -2.04659,3.03529 -4.66124,4.84048 -7.85926,5.42616 -1.0814,0.19805 -3.323,0.19438 -4.37018,-0.007 -2.97026,-0.57162 -5.29989,-2.11053 -7.05684,-4.66162 -0.12964,-0.18823 -0.13762,0.27166 -0.14163,8.15647 l -0.004,8.35596 h -4.16786 -4.16786 z m 17.15701,3.11562 c 3.70395,-0.90087 5.69155,-5.19045 5.17478,-11.16808 -0.32415,-3.74967 -1.65904,-6.25737 -3.91724,-7.35889 -1.09482,-0.53404 -1.63499,-0.6461 -3.11891,-0.64707 -1.06168,-7e-4 -1.35388,0.0274 -1.90184,0.18288 -2.21114,0.6274 -3.63473,2.1383 -4.45182,4.72486 -0.38179,1.20859 -0.53928,2.37156 -0.58481,4.31845 -0.0553,2.36562 0.10018,3.73624 0.59605,5.25411 0.89075,2.72656 2.75454,4.41529 5.30728,4.8088 0.68251,0.1052 2.24627,0.0431 2.89651,-0.11506 z m -67.980628,7.47866 c -7.065633,-0.72089 -11.831722,-5.60999 -12.98473,-13.31984 -0.430194,-2.87659 -0.337568,-6.26191 0.247295,-9.03824 1.126655,-5.3482 4.463838,-9.35165 9.083553,-10.89707 2.782688,-0.93088 6.583381,-1.05322 9.748151,-0.31378 2.860647,0.66839 5.345589,2.14968 7.088311,4.22539 2.076937,2.47378 3.259648,5.62157 3.654208,9.72564 0.10161,1.05692 0.1339,4.65848 0.0431,4.80542 -0.041,0.0664 -2.920712,0.0908 -10.704004,0.0908 H 79.92193 l 0.05736,0.66767 c 0.225085,2.62009 1.136571,4.66843 2.553281,5.73787 0.547002,0.41292 1.392811,0.81039 2.144627,1.00782 0.856825,0.225 3.072892,0.20451 3.965537,-0.0367 1.611652,-0.43545 2.787139,-1.3844 3.569441,-2.88156 l 0.234237,-0.44828 4.228557,-2e-4 c 2.325706,-1e-4 4.22856,0.017 4.22856,0.0379 0,0.0209 -0.14429,0.47749 -0.32064,1.01454 -0.723027,2.20186 -1.733987,3.8489 -3.35514,5.46614 -2.260155,2.2547 -4.851572,3.51516 -8.301763,4.03796 -1.051968,0.1594 -3.502946,0.22348 -4.532042,0.11848 z m 8.131522,-20.8116 c -0.09536,-0.9575 -0.294393,-1.88317 -0.552475,-2.56951 -0.873868,-2.32396 -2.847722,-3.55651 -5.700852,-3.55983 -1.45184,-0.002 -2.542977,0.27903 -3.507377,0.90236 -1.070259,0.69174 -1.856196,1.76672 -2.329137,3.18573 -0.213553,0.64075 -0.491533,1.99852 -0.492468,2.40543 -3.07e-4,0.13367 0.35429,0.14162 6.31618,0.14162 h 6.316506 z m 23.066736,20.81721 c -1.8598,-0.16622 -3.69082,-0.55834 -5.03966,-1.07926 -3.42175,-1.32148 -5.75575,-3.74834 -6.57972,-6.8415 -0.16028,-0.60166 -0.39391,-2.09476 -0.39705,-2.5375 l -0.002,-0.22256 h 4.27085 4.27086 l 0.10664,0.46535 c 0.54755,2.38915 2.8085,3.66205 6.5046,3.66205 2.59987,0 4.45898,-0.75664 5.03975,-2.05112 0.65705,-1.46453 0.113,-2.57825 -1.68441,-3.44814 -0.98947,-0.47887 -1.60931,-0.66153 -4.28533,-1.26281 -9.93407,-2.23214 -13.2531,-4.77808 -13.25148,-10.16487 0.001,-3.42019 1.29615,-6.07545 3.90785,-8.01191 1.65332,-1.22586 3.70852,-2.00749 6.28892,-2.3918 1.14436,-0.17043 4.49381,-0.1929 5.66505,-0.038 2.16846,0.28678 3.70177,0.72457 5.30087,1.51352 3.51347,1.73344 5.4097,4.58827 5.81824,8.75956 l 0.0417,0.42561 -4.14357,-0.021 -4.14357,-0.021 -0.0585,-0.48558 c -0.16701,-1.38494 -1.07003,-2.57723 -2.40262,-3.17224 -0.90787,-0.40538 -1.71012,-0.53978 -3.20454,-0.53687 -1.62884,0.003 -2.40049,0.13454 -3.25212,0.55361 -0.99759,0.49091 -1.48225,1.22736 -1.48225,2.25235 0,0.86317 0.44967,1.37129 1.82091,2.0576 1.21722,0.60921 2.53371,1.00495 5.98877,1.80019 3.29547,0.75851 5.38584,1.42418 7.12178,2.26789 1.30159,0.6326 1.89781,1.03643 2.67761,1.8136 1.03023,1.02674 1.66741,2.28484 1.93535,3.82129 0.15663,0.89821 0.1578,2.915 0.002,3.87413 -0.82816,5.10598 -4.64278,8.1116 -11.29186,8.8971 -1.30836,0.15457 -4.4154,0.22308 -5.54365,0.12225 z m -99.616757,-0.24902 c -4.740259,-0.49969 -7.6241816,-3.15193 -8.4210049,-7.74449 -0.2580163,-1.4871 -0.2835864,-2.72539 -0.2848583,-13.79486 l -0.00128,-11.14801 h 4.2487892 4.248789 v 9.74023 c 0,10.06115 0.03131,11.24985 0.329682,12.51533 0.572557,2.42841 2.215576,3.52426 5.052118,3.36965 3.501395,-0.19085 5.723975,-2.24943 6.103512,-5.65314 0.05791,-0.51937 0.08758,-4.03525 0.08758,-10.37876 v -9.59331 h 4.24879 4.248789 v 15.94308 15.94307 h -4.16786 -4.16786 v -1.82091 c 0,-1.0015 -0.01477,-1.82091 -0.03283,-1.82091 -0.01806,0 -0.500597,0.46494 -1.072313,1.0332 -1.462416,1.45358 -2.828011,2.3132 -4.580957,2.88362 -1.676688,0.54562 -3.821451,0.7389 -5.839086,0.52621 z m 23.907372,-16.74428 v -15.94308 h 4.16786 4.16786 v 1.86137 c 0,1.02376 0.02056,1.86138 0.04569,1.86138 0.02513,0 0.142689,-0.11836 0.261243,-0.26302 1.688611,-2.06046 3.995311,-3.45714 6.678206,-4.04358 0.724767,-0.15842 1.05957,-0.18024 2.766845,-0.18033 2.152221,-1.2e-4 2.83579,0.0863 4.243402,0.53622 3.157407,1.00929 5.114505,3.26636 5.831639,6.72548 0.316965,1.52889 0.324377,1.84312 0.324377,13.75292 v 11.63571 h -4.24879 -4.248789 l -4.77e-4,-10.29825 c -5.19e-4,-11.19621 -8.5e-5,-11.18417 -0.452361,-12.54551 -0.513909,-1.54684 -1.547993,-2.40833 -3.24752,-2.70546 -0.905451,-0.15831 -2.317241,-0.10058 -3.219099,0.13163 -2.005595,0.51639 -3.51415,1.91337 -4.157442,3.84993 -0.133072,0.4006 -0.280901,1.01324 -0.328507,1.36142 -0.05749,0.42047 -0.08656,3.91957 -0.08656,10.41965 v 9.78659 h -4.248789 -4.24879 z m 145.268135,-4.96413 c 0,-0.0461 5.26467,-9.15421 5.32521,-9.21285 0.0488,-0.0472 5.35746,9.06111 5.35746,9.19203 0,0.0265 -2.4036,0.0483 -5.34134,0.0483 -2.93773,0 -5.34133,-0.0123 -5.34133,-0.0274 z m -3.7023,-5.17035 -2.67335,-4.63513 5.30489,-0.0208 c 2.91769,-0.0114 5.32088,-0.005 5.34042,0.0147 0.0253,0.0253 -5.1357,9.06889 -5.28121,9.25421 -0.01,0.0122 -1.22041,-2.06366 -2.69075,-4.61298 z m 12.75887,0.003 c -1.44248,-2.50118 -2.63483,-4.57702 -2.64967,-4.61297 -0.0148,-0.036 2.3827,-0.0654 5.32785,-0.0654 2.94515,0 5.34268,0.0302 5.32785,0.0671 -0.0934,0.23247 -5.2895,9.15878 -5.33144,9.15878 -0.0285,0 -1.23211,-2.04641 -2.67459,-4.54759 z m -28.14543,-5.99369 c 0.0904,-0.1696 5.25598,-9.1424 5.28733,-9.18433 0.0153,-0.0205 5.32636,9.16667 5.37139,9.29159 0.0163,0.0453 -2.09761,0.0748 -5.36441,0.0748 h -5.3914 z m 12.69544,0.14138 c 0,-0.0224 1.20793,-2.13476 2.68428,-4.69416 l 2.68428,-4.65344 0.17353,0.30374 c 0.0954,0.16706 1.2959,2.25211 2.66768,4.63346 1.37178,2.38134 2.50972,4.35703 2.52876,4.39041 0.019,0.0334 -2.38934,0.0607 -5.35195,0.0607 -2.96262,0 -5.38658,-0.0183 -5.38658,-0.0407 z m 13.86817,-1.96229 c 3.67977,-6.38202 4.21728,-7.30387 4.2587,-7.30387 0.0251,0 0.79647,1.30195 1.71422,2.89322 0.91775,1.59127 2.12593,3.68532 2.68485,4.65344 l 1.01622,1.76021 h -5.41445 -5.41444 z m -17.57341,-3.27467 -2.67421,-4.63617 2.71005,-0.0213 c 1.49053,-0.0117 3.90526,-0.0117 5.36607,0 l 2.65603,0.0213 -2.65043,4.59473 c -1.45773,2.5271 -2.66907,4.61337 -2.69186,4.63617 -0.0228,0.0228 -1.24484,-2.04484 -2.71565,-4.59473 z m 15.33398,4.45517 c -0.22871,-0.36364 -5.23532,-9.06389 -5.23532,-9.09769 0,-0.0188 2.4075,-0.0341 5.34999,-0.0341 4.52427,0 5.34336,0.0173 5.30699,0.11206 -0.0377,0.0983 -5.22059,9.11147 -5.27973,9.1816 -0.0126,0.015 -0.0765,-0.0579 -0.14193,-0.16186 z m 10.20195,-4.42819 c -1.45774,-2.5277 -2.65044,-4.62006 -2.65044,-4.64971 0,-0.0297 2.38539,-0.0539 5.30087,-0.0539 4.00018,0 5.30087,0.0233 5.30087,0.0949 0,0.0995 -5.05857,8.93811 -5.21225,9.10708 -0.0662,0.0727 -0.76026,-1.06717 -2.73905,-4.49837 z m -28.04,-6.18058 c 0.30944,-0.53352 5.04077,-8.7439299 5.12392,-8.8916799 0.0567,-0.10075 0.63538,0.84316 2.50165,4.08065 1.33534,2.3164499 2.54835,4.4239599 2.69559,4.6833599 l 0.26771,0.47162 h -5.39418 -5.39417 z m 12.60273,0.30567 c 0,-0.0649 5.19354,-9.0598399 5.29255,-9.1664399 0.0717,-0.0771 0.52471,0.64864 1.97024,3.15625 1.03246,1.79102 2.23994,3.8846199 2.68329,4.6524399 l 0.80609,1.39603 h -5.37608 c -2.95685,0 -5.37609,-0.0172 -5.37609,-0.0383 z m -1.1597,-0.78422 c -0.388,-0.6087 -5.23437,-9.0771999 -5.20915,-9.1024199 0.0168,-0.0168 2.43685,-0.0212 5.37789,-0.01 l 5.34733,0.0208 -2.64828,4.59075 c -1.45656,2.5249099 -2.67055,4.6130099 -2.69776,4.6402199 -0.0272,0.0272 -0.10373,-0.0356 -0.17003,-0.13963 z"
       id="path1" /></g></svg>
