<svg width="301" height="68" viewBox="0 0 301 68" fill="none" xmlns="http://www.w3.org/2000/svg">
    <g clip-path="url(#clip0_846_150)">
    <path d="M97.559 33.6335V0.142885H98.5823H99.6056V33.6335V67.124H98.5823H97.559V33.6335ZM26.9808 66.1358C26.7599 65.7138 19.1912 46.955 15.7671 38.3431C14.2832 34.6111 12.3908 29.9181 10.9666 26.4382C10.4954 25.287 7.95985 18.989 5.33201 12.4427C2.70416 5.89648 0.500052 0.450985 0.433989 0.341662C0.367922 0.23234 1.46414 0.142885 2.87002 0.142885C5.29675 0.142885 5.43531 0.172706 5.60685 0.731596C5.70623 1.05538 7.19324 4.79363 8.91131 9.03882C10.6294 13.284 13.3891 20.1129 15.0441 24.2142C16.699 28.3155 18.7195 33.3195 19.5341 35.3341C20.3486 37.3488 21.841 41.0576 22.8505 43.576C23.8599 46.0943 25.1378 49.2476 25.6901 50.5833C26.2425 51.9189 26.6944 53.0734 26.6944 53.1487C26.6944 53.224 26.9408 53.8383 27.242 54.514C27.9099 56.0125 32.0668 66.328 32.0668 66.487C32.0668 66.5496 30.9772 66.6007 29.6455 66.6007C27.5873 66.6007 27.1876 66.531 26.9808 66.1358ZM48.5524 65.6196C48.3292 65.0799 47.7083 63.5199 47.1727 62.1528C46.637 60.7857 45.7805 58.6397 45.2692 57.3839L44.3396 55.1006L45.5448 52.0849C46.2077 50.4262 46.827 49.1577 46.921 49.2661C47.015 49.3744 48.0998 51.9944 49.3317 55.0884C50.5635 58.1823 51.722 61.067 51.906 61.4987C52.09 61.9304 52.641 63.255 53.1306 64.4422L54.0207 66.6007H51.4895H48.9584L48.5524 65.6196ZM66.3479 66.183C64.6767 65.7277 62.0439 64.4736 60.5211 63.4075L59.4272 62.6416L58.8362 64.0325C58.5112 64.7975 58.1661 65.6462 58.0693 65.9187C57.9726 66.1911 57.8539 66.3677 57.8055 66.3111C57.6741 66.1575 56.1484 62.3997 51.3635 50.4442C48.9877 44.5081 46.9838 39.6521 46.9104 39.6532C46.837 39.6542 46.0626 41.4497 45.1894 43.6432C43.1026 48.8857 38.1729 61.1525 36.9892 64.0478C36.4749 65.306 35.9762 66.2479 35.8809 66.141C35.7857 66.0341 34.991 64.1217 34.115 61.8911C32.1392 56.8599 30.1647 51.9315 29.5029 50.3787C29.2268 49.7312 27.7791 46.1401 26.2857 42.3986C24.7923 38.6571 22.8411 33.7708 21.9497 31.5403C21.0584 29.3098 19.5302 25.4832 18.5538 23.0368C12.7949 8.60772 11.5151 5.41803 11.1624 4.61503C10.947 4.12466 10.4442 2.91361 10.0452 1.92383L9.31956 0.124205L11.7961 0.198961L14.2727 0.273705L18.1785 9.95458C25.8716 29.0226 28.5369 35.6078 28.8757 36.3847C29.0649 36.8185 29.3489 37.525 29.5068 37.9545C30.214 39.8781 35.7455 53.4087 35.8989 53.5902C35.9931 53.7017 37.9439 49.1686 40.2342 43.5169C44.2678 33.5629 44.3883 33.2123 44.0809 32.3252C43.3834 30.3125 42.5547 28.632 42.3297 28.7742C42.199 28.8568 41.9184 29.4247 41.7063 30.0361C41.4941 30.6476 40.5558 33.0317 39.6211 35.3341C38.6864 37.6366 37.4966 40.6093 36.9769 41.9401C36.4573 43.2709 35.9692 44.36 35.8923 44.3603C35.6746 44.3612 33.4966 38.8048 33.5374 38.3526C33.5573 38.1315 34.512 35.6547 35.6588 32.8485C36.8056 30.0424 38.2549 26.459 38.8796 24.8854L40.0152 22.0244L39.6025 20.9607C39.3755 20.3757 38.6353 18.5431 37.9576 16.8882C35.6301 11.2047 31.2993 0.394924 31.2993 0.268951C31.2993 0.199621 32.372 0.142897 33.6831 0.142897H36.0669L36.9212 2.30147C37.3912 3.48868 37.9735 4.93101 38.2154 5.50662C38.4573 6.08224 39.7163 9.20235 41.0133 12.4402C42.3103 15.6781 43.5399 18.7124 43.7457 19.1833C44.1468 20.1006 46.2786 25.3693 49.3276 32.9794C52.0388 39.7461 52.0373 39.7426 52.2534 39.4895C52.3617 39.3626 52.7686 38.3458 53.1577 37.2299C54.0543 34.658 55.4537 32.427 57.6293 30.1012L59.3425 28.2697L62.5088 20.4204C64.2503 16.1033 66.795 9.80414 68.1637 6.42238L70.6521 0.273718L73.1021 0.198864L75.552 0.124023L75.3193 0.722159C75.1914 1.05114 74.117 3.73398 72.9318 6.68403C67.0285 21.3782 65.7975 24.5235 65.9063 24.6348C65.9713 24.7012 66.529 24.6364 67.1455 24.4914C67.7621 24.346 68.6282 24.2242 69.0703 24.2207C69.7752 24.2144 69.927 24.0777 70.3064 23.1023C70.5443 22.4907 70.8916 21.6371 71.0782 21.2054C71.2648 20.7737 72.0522 18.831 72.8279 16.8883C73.6036 14.9455 74.8844 11.7666 75.674 9.82385C76.4637 7.88114 77.6527 4.90909 78.3164 3.21929L79.523 0.14695L82.011 0.145051C84.4861 0.143148 84.4979 0.146139 84.2791 0.731765C84.1581 1.05555 83.482 2.73335 82.7765 4.46021C82.071 6.18706 80.8606 9.18942 80.0866 11.1321C79.3127 13.0749 77.8133 16.8131 76.7547 19.4394L74.8298 24.2144H78.3916C80.3506 24.2144 81.9534 24.2747 81.9534 24.3482C81.9534 24.4218 81.5799 25.0594 81.1234 25.7649L80.2934 27.0477L73.8963 27.162C67.0598 27.2841 66.5423 27.3681 63.7641 28.8048C59.0165 31.26 55.5405 36.214 54.5711 41.9068C54.1834 44.1836 54.3678 48.5799 54.9429 50.7714C56.5629 56.9441 61.4488 61.9377 67.2433 63.3428C68.3605 63.6138 70.5708 63.7161 75.3658 63.7189L81.9534 63.7237V53.917V44.1103L76.3562 44.0399L70.759 43.9695L71.6211 42.5959L72.4832 41.2222H78.4608H84.4383L84.6247 50.3579C84.7271 55.3825 84.7281 61.0929 84.6268 63.0477L84.4426 66.6018L76.0987 66.5845C69.6244 66.5718 67.4397 66.4804 66.3479 66.183ZM138.34 62.4601C136.013 61.6375 134.456 59.87 133.875 57.3929C132.678 52.2884 136.323 47.4965 141.399 47.5021C144.196 47.5053 146.5 48.8188 147.783 51.1407C148.794 52.9708 149.026 55.8581 148.333 57.9912C147.698 59.946 145.707 61.9611 143.855 62.5236C142.085 63.0612 139.972 63.0368 138.34 62.4601ZM142.78 61.2248C143.737 60.5396 144.202 58.2997 144.051 55.1084C143.851 50.8868 142.869 48.8089 141.072 48.8089C139.289 48.8089 138.357 50.797 138.376 54.5651C138.401 59.6978 140.494 62.8623 142.78 61.2248ZM154.327 62.3946C152.597 61.3397 152.45 60.8073 152.306 55.0884L152.178 49.9863L151.352 49.5938C150.898 49.378 150.524 49.0086 150.521 48.7732C150.515 48.3074 151.147 48.1688 154.673 47.8624L156.655 47.6901V53.3634V59.0368L157.283 59.679C158.014 60.4263 159.124 60.5173 160.25 59.9221L161.004 59.5229V54.852C161.004 49.8551 160.99 49.7971 159.66 49.4557C159.224 49.3437 158.958 49.0993 158.958 48.8102C158.958 48.3042 159.452 48.1928 163.115 47.8736L165.098 47.7008V53.3399C165.098 56.4414 165.211 59.2835 165.349 59.6558C165.517 60.1082 165.857 60.3849 166.373 60.4905C166.948 60.6081 167.144 60.7935 167.144 61.219C167.144 61.7309 166.901 61.8374 164.778 62.2531C163.476 62.5079 162.095 62.7809 161.708 62.8598C161.031 62.9977 161.004 62.9617 161.004 61.9211V60.8392L159.578 61.8078C157.746 63.0517 155.768 63.2728 154.327 62.3946ZM191.353 62.5677C189.89 62.0135 188.661 60.8824 187.767 59.2682C187.059 57.9889 186.975 57.6116 186.984 55.7425C186.997 53.205 187.684 51.6231 189.525 49.887C191.144 48.361 192.633 47.7374 195.062 47.567L197.076 47.4259V45.0913C197.076 42.4033 196.881 41.8746 195.806 41.6548C195.248 41.5406 195.03 41.3469 195.03 40.9661C195.03 40.6747 195.065 40.4363 195.108 40.4363C195.152 40.4363 196.44 40.2008 197.972 39.913C199.503 39.6252 200.85 39.3897 200.963 39.3897C201.077 39.3897 201.181 43.7755 201.195 49.136C201.21 54.4964 201.3 59.1766 201.397 59.5363C201.526 60.0132 201.831 60.2561 202.523 60.4328C203.168 60.5975 203.472 60.8226 203.472 61.1347C203.472 61.6615 203.346 61.7084 200.402 62.2759C199.206 62.5065 197.969 62.752 197.652 62.8214C197.155 62.9305 197.076 62.84 197.076 62.1578C197.076 61.1915 196.949 61.1831 195.68 62.0652C194.475 62.9025 192.762 63.1015 191.353 62.5677ZM196.581 60.0504C197.042 59.7983 197.076 59.4594 197.076 55.1589V50.5382L196.389 49.8044C195.403 48.7518 194.22 48.7996 193.108 49.9366C191.52 51.5611 191.098 55.5907 192.271 57.9235C193.264 59.8952 195.157 60.8299 196.581 60.0504ZM206.926 62.4482C205.366 61.4573 204.91 60.6962 204.798 58.8912C204.705 57.3927 204.759 57.1499 205.312 56.5839C205.652 56.236 207.189 55.4544 208.727 54.8469C210.265 54.2394 211.668 53.6187 211.846 53.4675C212.228 53.1435 212.273 51.4755 211.926 50.5403C211.791 50.1787 211.388 49.6865 211.03 49.4466C210.446 49.0548 210.319 49.0505 209.791 49.4045C209.468 49.6214 208.995 50.3119 208.742 50.9391C207.987 52.8053 207.937 52.861 206.939 52.9472C205.763 53.0487 205.007 52.4374 205.007 51.3865C205.007 50.8156 205.259 50.4542 206.094 49.8246C208.923 47.6931 212.224 46.973 214.084 48.0817C214.644 48.4156 215.361 49.1573 215.678 49.73C216.206 50.6828 216.255 51.1089 216.259 54.7443C216.264 59.4825 216.414 60.0597 217.634 60.0597C218.295 60.0597 218.539 60.1881 218.642 60.591C218.756 61.0348 218.481 61.2752 216.972 62.0521C214.839 63.1512 213.822 63.1121 212.885 61.895L212.298 61.1332L210.903 62.0355C209.301 63.0713 208.102 63.1957 206.926 62.4482ZM211.766 60.1624C212.097 60.0322 212.17 59.5319 212.17 57.3903V54.777L210.955 55.4881C209.4 56.3979 209.1 56.801 209.1 57.9812C209.1 59.6827 210.36 60.7139 211.766 60.1624ZM223.555 62.6881C222.768 62.3555 221.906 61.2858 221.63 60.2995C221.492 59.8097 221.38 57.2005 221.38 54.5014V49.5938H220.357C219.618 49.5938 219.333 49.4847 219.333 49.2013C219.333 48.638 220.267 47.7623 220.868 47.7623C221.301 47.7623 221.38 47.5878 221.38 46.6276C221.38 45.5212 221.423 45.4625 223.11 44.2728C225.619 42.5036 225.729 42.5506 225.729 45.395V47.7373L227.328 47.8152C228.917 47.8926 228.927 47.898 228.927 48.678C228.927 49.459 228.919 49.4634 227.313 49.5413L225.698 49.6196L225.778 54.6016C225.856 59.5078 225.867 59.5914 226.475 60.0946C226.93 60.4712 227.3 60.5607 227.882 60.4347C228.316 60.3409 228.784 60.2474 228.921 60.2272C229.058 60.207 229.21 60.4564 229.259 60.7815C229.333 61.2806 229.096 61.4942 227.73 62.1549C226.108 62.9395 224.603 63.1317 223.555 62.6881ZM245.265 62.6527C243.878 62.2415 242.022 60.7689 241.228 59.4488C240.568 58.3527 240.452 57.8718 240.357 55.8439C240.254 53.6332 240.293 53.411 241.059 51.8198C242.507 48.8109 245.044 47.359 248.498 47.5625C251.514 47.7403 253.457 49.0762 254.686 51.8177C255.147 52.8458 255.271 53.5743 255.262 55.2191C255.242 58.8179 253.671 61.2431 250.599 62.4197C249.16 62.9707 246.701 63.0782 245.265 62.6527ZM249.387 61.0054C250.319 60.0522 250.614 58.4763 250.497 55.0753C250.409 52.5285 250.294 51.8496 249.765 50.7581C248.588 48.329 246.651 48.2656 245.585 50.6213C245.141 51.603 245.045 52.3109 245.05 54.565C245.056 57.9221 245.56 59.6649 246.86 60.8323C247.929 61.792 248.575 61.8362 249.387 61.0054ZM116.149 62.5016C115.672 62.0133 116.02 61.3835 116.857 61.2229C118.682 60.8729 118.665 60.9606 118.665 51.8557C118.665 42.6791 118.658 42.639 116.981 42.3647C116.12 42.224 115.965 42.1062 116.029 41.6434C116.106 41.0964 116.19 41.0895 123.705 41.021L131.304 40.9517L131.43 41.8059C131.5 42.2757 131.616 43.4549 131.689 44.4263C131.818 46.1515 131.807 46.1924 131.209 46.1924C130.717 46.1924 130.473 45.9115 129.95 44.7443C129.109 42.8654 128.288 42.4787 125.364 42.5844L123.27 42.6602L123.199 46.7811L123.129 50.902H125.298C127.884 50.902 128.703 50.5867 128.981 49.4846C129.117 48.943 129.365 48.651 129.735 48.5957C130.474 48.4853 130.6 49.0973 130.508 52.3411C130.438 54.7925 130.398 54.9626 129.882 55.0378C129.448 55.1011 129.267 54.9194 129.03 54.1855C128.864 53.6725 128.516 53.136 128.255 52.9932C127.994 52.8505 126.737 52.7336 125.461 52.7336H123.142V56.3966C123.142 60.5767 123.28 60.9072 125.161 61.2324C126.49 61.4619 126.646 62.2601 125.412 62.5125C124.34 62.7318 116.365 62.7226 116.149 62.5016ZM168.424 61.9202C168.424 61.5614 168.672 61.3784 169.33 61.252C169.978 61.1277 170.307 60.8903 170.482 60.4209C170.616 60.0595 170.724 57.8582 170.722 55.5292C170.719 50.9656 170.518 50.0513 169.489 49.9006C169.059 49.8376 168.926 49.669 168.984 49.2621C169.05 48.7992 169.395 48.6352 171.106 48.2534C175.151 47.3506 174.819 47.3254 174.819 48.5353C174.819 49.1175 174.895 49.5938 174.987 49.5938C175.079 49.5938 175.511 49.3169 175.946 48.9784C178.85 46.7217 181.564 47.059 182.942 49.8476C183.47 50.9176 183.517 51.3705 183.517 55.3884C183.517 57.7949 183.628 60.0626 183.764 60.4277C183.905 60.8053 184.291 61.1633 184.66 61.258C185.068 61.3628 185.308 61.6079 185.308 61.9194C185.308 62.3822 185.067 62.4144 181.599 62.4144C178.06 62.4144 177.889 62.3904 177.889 61.8911C177.889 61.6033 178.055 61.3678 178.258 61.3678C178.461 61.3678 178.807 61.1061 179.026 60.7863C179.573 59.9872 179.601 52.888 179.062 51.5688C178.449 50.0676 177.138 49.7099 175.651 50.6375L174.819 51.156V55.8507C174.819 59.7698 174.886 60.6134 175.221 60.9566C175.442 61.1828 175.788 61.3678 175.989 61.3678C176.19 61.3678 176.354 61.6033 176.354 61.8911C176.354 62.3919 176.184 62.4144 172.389 62.4144C168.672 62.4144 168.424 62.3835 168.424 61.9202ZM230.59 61.8912C230.59 61.5642 230.76 61.3679 231.045 61.3679C231.295 61.3679 231.755 61.1846 232.068 60.9606C232.622 60.5637 232.636 60.4247 232.636 55.5184C232.636 50.3003 232.552 49.8555 231.554 49.8555C230.968 49.8555 230.652 49.0932 231.116 48.8001C231.305 48.6804 232.502 48.3914 233.775 48.1579C235.048 47.9244 236.292 47.6731 236.538 47.5994C236.956 47.4743 236.986 47.9005 236.986 54.0094C236.986 60.4751 236.992 60.5582 237.554 60.9606C237.867 61.1846 238.327 61.3679 238.577 61.3679C238.862 61.3679 239.032 61.5642 239.032 61.8912C239.032 62.3933 238.862 62.4145 234.811 62.4145C230.76 62.4145 230.59 62.3932 230.59 61.8912ZM257.196 61.912C257.196 61.5661 257.436 61.3556 257.966 61.2366C258.389 61.1414 258.849 60.8455 258.989 60.5789C259.283 60.0165 259.331 50.9253 259.042 50.4606C258.935 50.2897 258.526 50.0244 258.132 49.8711C257.671 49.6922 257.444 49.4356 257.497 49.1547C257.559 48.8275 258.258 48.5663 260.266 48.1194C261.743 47.7906 263.039 47.517 263.144 47.5112C263.25 47.5048 263.336 47.9717 263.336 48.5473C263.336 49.1229 263.39 49.5939 263.455 49.5939C263.521 49.5939 264.287 49.1229 265.158 48.5473C267.001 47.3289 268.366 47.178 269.971 48.0152C271.664 48.8988 272.031 50.0772 272.053 54.7131C272.063 56.8622 272.15 59.1504 272.245 59.798C272.398 60.841 272.513 61.004 273.249 61.2258C273.787 61.3877 274.081 61.6417 274.081 61.9453C274.081 62.3756 273.763 62.4145 270.243 62.4145C266.65 62.4145 266.406 62.3831 266.406 61.9195C266.406 61.6106 266.645 61.3633 267.042 61.2614C267.914 61.0375 267.99 60.5362 267.895 55.6276L267.813 51.3788L267.095 50.748C266.224 49.9823 265.276 49.9465 264.167 50.6376L263.336 51.1561V55.6805C263.336 59.352 263.411 60.3146 263.734 60.7864C263.953 61.1063 264.299 61.368 264.502 61.368C264.705 61.368 264.871 61.6034 264.871 61.8912C264.871 62.3913 264.7 62.4145 261.034 62.4145C257.42 62.4145 257.196 62.3851 257.196 61.912ZM68.7782 61.4468C63.3079 60.7039 58.2588 55.7421 56.7167 49.5938C56.1478 47.3256 56.1481 43.4144 56.7173 41.2212C58.1569 35.6743 61.9763 31.4664 67.1153 29.7653C68.2629 29.3854 78.8835 28.939 78.8835 29.2707C78.8835 29.506 77.2783 31.9105 76.978 32.125C76.83 32.2308 74.8921 32.319 72.6716 32.3212C69.2744 32.3244 68.3853 32.411 67.0645 32.866C65.1379 33.5298 63.6928 34.5236 62.2238 36.1949C59.9429 38.79 58.9288 41.6253 58.9288 45.4075C58.9288 49.2515 59.954 52.065 62.3217 54.7189C65.0475 57.7742 67.2397 58.5711 72.9994 58.6004L76.9648 58.6205L77.0346 53.9763L77.1045 49.3321H72.3605H67.6166L68.1441 48.2747C69.2058 46.1461 69.061 46.1924 74.6623 46.1924H79.6509V53.9109V61.6294L74.5983 61.5903C71.8194 61.5687 69.2003 61.5042 68.7782 61.4468ZM233.083 44.8883C232.271 44.2349 232.006 43.1935 232.402 42.2152C232.709 41.4572 233.787 40.6979 234.555 40.6979C235.324 40.6979 236.401 41.4572 236.708 42.2152C237.329 43.7486 236.211 45.4075 234.555 45.4075C234.101 45.4075 233.438 45.1739 233.083 44.8883ZM148.597 33.6655C147.322 33.3231 146.287 32.6659 145.405 31.6381C144.152 30.1789 143.785 29.0692 143.769 26.6999C143.753 24.1886 144.286 22.7795 145.952 20.9235C149.659 16.7944 155.728 18.0656 156.311 23.0929C156.415 23.9983 156.358 24.4453 156.109 24.6514C155.917 24.8103 154.002 25.0543 151.853 25.1937C149.704 25.3331 147.883 25.5111 147.807 25.5892C147.584 25.8167 148.212 27.928 148.788 28.8893C149.371 29.8641 150.974 30.7421 152.178 30.7471C152.601 30.7487 153.561 30.4572 154.314 30.099C156.293 29.1565 156.786 29.727 155.394 31.349C153.809 33.1954 150.74 34.2411 148.597 33.6655ZM151.347 23.7846C152.241 23.6335 152.306 23.5604 152.306 22.7151C152.306 20.6284 151.011 19.3321 149.589 19.995C148.879 20.3256 147.971 22.1335 147.963 23.2331C147.956 23.9182 148.015 23.9525 149.172 23.9497C149.841 23.9481 150.819 23.8739 151.347 23.7846ZM198.924 33.5106C197.426 33.0321 196.197 32.0157 195.368 30.5685C194.79 29.561 194.653 28.9621 194.564 27.0705C194.47 25.0545 194.532 24.6214 195.098 23.3579C195.958 21.4358 197.344 19.9271 199.016 19.0903C200.202 18.4967 200.65 18.4133 202.176 18.5015C203.697 18.5894 204.096 18.7206 204.929 19.4064C205.464 19.8475 206.16 20.6682 206.474 21.2302C207.104 22.3578 207.247 24.2481 206.734 24.6828C206.558 24.8319 205.033 25.0282 203.344 25.1191C198.866 25.3603 198.611 25.4182 198.611 26.1968C198.611 27.1271 199.296 28.6752 200.074 29.5065C201.386 30.907 203.633 31.0812 205.464 29.9242C206.262 29.4199 206.36 29.4106 206.744 29.803C207.128 30.1955 207.049 30.3378 205.722 31.6522C203.644 33.7106 201.438 34.3136 198.924 33.5106ZM203.025 23.3639C203.39 22.2488 202.103 19.7663 201.159 19.7663C200.335 19.7663 199.398 20.8162 199.001 22.1829C198.787 22.9207 198.611 23.5618 198.611 23.6076C198.611 23.6534 199.58 23.691 200.764 23.691C202.259 23.691 202.95 23.5909 203.025 23.3639ZM241.679 33.5389C238.447 32.6995 235.389 30.3642 234.249 27.8649C233.012 25.1529 232.861 21.494 233.875 18.7658C235.951 13.1767 242.335 10.3855 249.869 11.7728C252.656 12.2861 252.437 11.9791 252.732 15.7762L252.9 17.9347H252.269C251.753 17.9347 251.554 17.7119 251.185 16.7223C250.268 14.2674 248.13 12.8873 245.279 12.9096C243.609 12.9223 242.413 13.4443 241.001 14.7757C239.333 16.3479 238.474 18.4905 238.323 21.4565C237.992 27.9203 240.993 32.3497 245.733 32.3953C246.965 32.4064 247.355 32.3021 247.81 31.8364C248.318 31.3164 248.37 30.9966 248.37 28.4018C248.37 25.0687 248.229 24.804 246.299 24.523C245.26 24.3719 245.03 24.2395 244.962 23.754L244.881 23.1677H249.759C254.487 23.1677 254.638 23.184 254.638 23.6974C254.638 24.0336 254.383 24.3264 253.939 24.4987C253.555 24.6481 253.154 24.9101 253.048 25.0809C252.942 25.2518 252.853 27.0513 252.851 29.0797L252.848 32.7678L250.865 33.2342C248.314 33.8342 243.439 33.9959 241.679 33.5389ZM274.209 33.6504C271.662 33.0164 270.06 31.1183 269.512 28.0882C269.025 25.394 269.808 22.7983 271.736 20.7161C274.267 17.9834 278.474 17.6792 280.656 20.0714C281.825 21.3528 282.432 24.0577 281.692 24.6807C281.516 24.8286 280.048 25.0237 278.43 25.1144C276.812 25.2051 275.015 25.3387 274.437 25.4113L273.386 25.5434L273.573 26.5141C273.675 27.048 273.878 27.7864 274.023 28.1551C274.414 29.1462 275.985 30.4427 277.042 30.6455C278.038 30.8365 279.664 30.4457 280.665 29.7748C281.22 29.4028 281.312 29.4048 281.696 29.7973C282.087 30.1975 282.015 30.33 280.68 31.6522C278.731 33.5824 276.591 34.2435 274.209 33.6504ZM277.918 22.683C277.918 21.551 277.016 19.9533 276.298 19.8118C275.258 19.607 274.207 20.8984 273.726 22.9714L273.559 23.6909H275.739H277.918V22.683ZM119.692 33.3063C119.633 33.1265 118.378 28.9261 116.903 23.9721C115.428 19.0182 114.001 14.6618 113.733 14.2913C113.464 13.9207 112.852 13.4851 112.373 13.3231C111.8 13.1296 111.474 12.8381 111.42 12.4728C111.339 11.9225 111.387 11.9169 116.234 11.9169C121.127 11.9169 121.131 11.9173 121.049 12.4901C120.993 12.8808 120.713 13.1304 120.168 13.274C118.588 13.6905 118.589 13.7263 120.47 20.2825C121.421 23.5961 122.274 26.3074 122.366 26.3074C122.458 26.3074 123.539 23.1284 124.767 19.2429L127.001 12.1785H127.847H128.692L131.349 19.487C132.811 23.5066 134.04 26.7608 134.081 26.7186C134.211 26.5858 135.923 20.5365 136.596 17.8327C136.95 16.4094 137.205 14.8788 137.162 14.4313C137.093 13.7073 136.965 13.5904 135.997 13.3711C135.102 13.1681 134.91 13.0181 134.91 12.5207C134.91 11.9178 134.915 11.9169 138.619 11.9169H142.329V12.571C142.329 13.0191 142.188 13.2254 141.881 13.2261C140.788 13.2277 139.841 14.2043 139.158 16.0325C138.594 17.5412 133.631 33.2669 133.631 33.5443C133.631 33.5933 133.198 33.6334 132.67 33.6334H131.708L129.163 26.569C127.763 22.6836 126.553 19.5046 126.474 19.5046C126.394 19.5046 125.298 22.6836 124.037 26.569L121.745 33.6334H120.773C120.223 33.6334 119.753 33.4913 119.692 33.3063ZM157.679 32.8693C157.679 32.5263 157.917 32.3133 158.429 32.1983C158.841 32.1057 159.315 31.8618 159.482 31.6562C159.862 31.1879 160.12 25.2312 159.865 22.8017C159.693 21.1515 159.629 21.013 158.935 20.7655C158.499 20.6098 158.19 20.3121 158.19 20.0459C158.19 19.6816 158.708 19.4795 160.813 19.0224C162.255 18.7091 163.572 18.454 163.74 18.4554C163.911 18.4564 164.08 18.9121 164.124 19.4892L164.202 20.5204L165.737 19.4629C167.194 18.4596 167.354 18.4107 168.863 18.509C170.692 18.6281 171.505 19.2054 172.289 20.9436C172.69 21.8316 172.762 22.6766 172.767 26.5208C172.77 29.0126 172.885 31.2656 173.022 31.5274C173.159 31.7891 173.562 32.078 173.917 32.1693C174.336 32.2768 174.563 32.5174 174.563 32.8535C174.563 33.3463 174.381 33.3718 170.854 33.3718C167.423 33.3718 167.144 33.3356 167.144 32.8905C167.144 32.6258 167.426 32.278 167.77 32.1176C168.607 31.7275 168.738 30.8609 168.635 26.371C168.561 23.1103 168.489 22.5947 168.014 21.9429C167.364 21.0491 166.021 20.8432 164.857 21.4588L164.074 21.8728L164.078 26.6411C164.079 29.2637 164.166 31.5407 164.27 31.7012C164.373 31.8617 164.716 32.0757 165.033 32.1767C165.369 32.2841 165.609 32.5706 165.609 32.8661C165.609 33.3441 165.392 33.3718 161.643 33.3718C157.903 33.3718 157.679 33.3432 157.679 32.8693ZM176.098 32.842C176.098 32.4635 176.316 32.2677 176.86 32.1564C177.279 32.0706 177.742 31.8524 177.889 31.6713C178.06 31.4606 178.131 29.5176 178.087 26.277L178.017 21.2119L177.314 20.8673C176.927 20.6777 176.61 20.3098 176.61 20.0496C176.61 19.6619 177.073 19.4757 179.178 19.0173C180.59 18.7097 181.857 18.4581 181.992 18.4581C182.128 18.4581 182.238 18.929 182.238 19.5046C182.238 20.0802 182.292 20.5512 182.357 20.5512C182.423 20.5512 183.189 20.0802 184.06 19.5046C185.39 18.6256 185.856 18.4581 186.973 18.4581C188.622 18.4581 189.828 19.2082 190.553 20.6855C190.993 21.5841 191.082 22.4174 191.192 26.6999L191.32 31.6711L192.152 32.0454C192.651 32.2702 192.983 32.6099 192.983 32.8957C192.983 33.3349 192.686 33.3718 189.146 33.3718C185.491 33.3718 185.308 33.3471 185.308 32.8535C185.308 32.5184 185.535 32.277 185.95 32.1705C186.322 32.075 186.652 31.7603 186.735 31.4213C186.814 31.0998 186.842 28.8878 186.797 26.5057C186.725 22.6842 186.658 22.1097 186.228 21.6245C185.394 20.6829 182.83 21.1107 182.397 22.2636C182.19 22.8169 182.197 29.5467 182.405 30.8437C182.519 31.5497 182.746 31.9311 183.17 32.1285C183.501 32.283 183.772 32.6258 183.772 32.8905C183.772 33.3364 183.49 33.3718 179.935 33.3718C176.252 33.3718 176.098 33.3504 176.098 32.842ZM208.589 32.8693C208.589 32.5234 208.828 32.3129 209.358 32.1939C209.781 32.0989 210.242 31.8028 210.382 31.5362C210.71 30.9092 210.714 21.9749 210.386 21.349C210.249 21.0872 209.839 20.7964 209.474 20.7027C209.029 20.5884 208.838 20.385 208.895 20.084C208.975 19.6605 210.122 19.3188 213.897 18.5939L214.729 18.4343L214.743 20.0814L214.758 21.7286L215.319 20.9477C216.687 19.0456 217.447 18.458 218.541 18.458C219.919 18.458 220.613 19.1477 220.613 20.5159C220.613 22.4417 219.012 23.5303 217.686 22.5052C216.95 21.9354 216.175 22.0372 215.477 22.7954C214.892 23.432 214.853 23.6705 214.787 27.0471C214.703 31.3177 214.868 31.8212 216.464 32.1661C217.263 32.339 217.543 32.5256 217.543 32.8857C217.543 33.3409 217.259 33.3718 213.066 33.3718C208.822 33.3718 208.589 33.3456 208.589 32.8693ZM256.173 32.8693C256.173 32.5263 256.411 32.3133 256.923 32.1983C257.335 32.1057 257.798 31.8751 257.951 31.6859C258.137 31.4567 258.207 29.6516 258.161 26.2769L258.091 21.2119L257.388 20.8672C257.001 20.6777 256.684 20.3138 256.684 20.0585C256.684 19.6778 257.181 19.4923 259.45 19.0262C260.971 18.7137 262.295 18.458 262.392 18.458C262.489 18.458 262.572 19.135 262.577 19.9625L262.585 21.4669L263.145 20.682C264.288 19.0807 265.129 18.458 266.149 18.458C267.496 18.458 268.299 19.1771 268.299 20.3849C268.299 22.2631 266.634 23.4657 265.329 22.5306C264.49 21.93 263.699 22.0292 263.099 22.8104C262.615 23.4394 262.568 23.8494 262.568 27.488C262.568 31.8726 262.576 31.896 264.167 32.2001C264.874 32.3352 265.127 32.5136 265.127 32.8776C265.127 33.3432 264.868 33.3718 260.65 33.3718C256.405 33.3718 256.173 33.3456 256.173 32.8693ZM283.291 32.8899C283.291 32.5568 283.597 32.314 284.284 32.1035C284.957 31.8973 285.328 31.6093 285.432 31.2117C285.679 30.2685 285.616 22.2168 285.356 21.5171C285.223 21.1599 284.829 20.8047 284.46 20.7101C284.052 20.6052 283.802 20.3587 283.802 20.0595C283.802 19.6564 284.251 19.4866 286.552 19.0177C288.065 18.7097 289.382 18.4577 289.48 18.4578C289.577 18.4579 289.692 18.9289 289.736 19.5046L289.814 20.5512L291.349 19.5054C292.663 18.61 293.082 18.4595 294.261 18.4588C296.015 18.4578 297.145 19.1451 297.855 20.6436C298.327 21.6421 298.384 22.2465 298.384 26.2421C298.384 28.7056 298.493 31.0123 298.625 31.3681C298.781 31.7863 299.142 32.0772 299.648 32.1909C300.19 32.3127 300.431 32.5215 300.431 32.8692C300.431 33.3425 300.208 33.3717 296.594 33.3717C293.038 33.3717 292.756 33.3364 292.756 32.8904C292.756 32.6258 293.041 32.2765 293.389 32.1144C294.258 31.7096 294.34 31.1662 294.246 26.4959C294.167 22.6026 294.136 22.3936 293.543 21.7488C292.649 20.7763 290.578 20.8979 289.882 21.964C289.779 22.1222 289.692 24.2828 289.69 26.7652C289.687 30.9327 289.726 31.3187 290.198 31.8019C290.479 32.0897 290.825 32.3252 290.965 32.3252C291.106 32.3252 291.221 32.5606 291.221 32.8485C291.221 33.3492 291.051 33.3717 287.256 33.3717C283.575 33.3717 283.291 33.3372 283.291 32.8899ZM50.1567 25.4294C49.4938 23.8079 48.9515 22.3351 48.9515 22.1563C48.9515 21.9776 49.9397 19.3946 51.1474 16.4163C52.3551 13.438 54.3345 8.55806 55.5459 5.57203L57.7486 0.142885H60.1295C61.5592 0.142885 62.5104 0.248279 62.5104 0.40668C62.5104 0.551761 61.9235 2.11182 61.2062 3.87348C58.3549 10.8762 54.7313 19.8975 52.7732 24.8683C52.0362 26.7391 51.4172 28.294 51.3975 28.3236C51.3779 28.3533 50.8195 27.0508 50.1567 25.4294ZM32.6423 26.1184C32.2082 24.9991 30.9983 21.9641 29.9535 19.3738C25.3997 8.08393 22.3453 0.421444 22.3453 0.287449C22.3453 0.207939 23.4205 0.142885 24.7346 0.142885C26.9646 0.142885 27.1413 0.182129 27.3847 0.731583C27.5281 1.05537 28.4208 3.263 29.3686 5.63743C30.3164 8.01187 31.3105 10.4522 31.5778 11.0604C31.8451 11.6686 32.5683 13.4348 33.1849 14.9851C33.8015 16.5355 34.7259 18.8342 35.239 20.0933L36.1721 22.3827L35.0517 25.1829C34.4355 26.7229 33.8188 28.0213 33.6814 28.0682C33.544 28.1151 33.0764 27.2376 32.6423 26.1184ZM222.254 25.9901C222.349 25.3839 222.463 24.851 222.507 24.8059C222.551 24.7608 224.363 24.7564 226.533 24.7964L230.479 24.8685L230.263 25.9805L230.048 27.0925H226.065H222.082L222.254 25.9901ZM45.6847 14.3265C45.0866 12.7854 44.5984 11.3055 44.5998 11.038C44.6013 10.7704 45.1032 9.35754 45.7152 7.89823C46.3272 6.43895 47.2769 4.09864 47.8258 2.69758L48.8236 0.150204L51.19 0.146551C52.4915 0.144648 53.5564 0.250875 53.5564 0.382846C53.5564 0.514813 53.3151 1.19183 53.0202 1.88731C52.7252 2.58279 51.2754 6.21307 49.7983 9.9546C48.3212 13.6961 47.036 16.8409 46.9424 16.9429C46.8488 17.045 46.2829 15.8676 45.6847 14.3265Z" fill="black"/>
    </g>
    <defs>
    <clipPath id="clip0_846_150">
    <rect width="300" height="67" fill="white" transform="translate(0.431152 0.124023)"/>
    </clipPath>
    </defs>
    </svg>
    